<?xml version="1.0" encoding="UTF-8" standalone="no"?>
<!-- Created with Inkscape (http://www.inkscape.org/) -->

<svg
   xmlns:dc="http://purl.org/dc/elements/1.1/"
   xmlns:cc="http://creativecommons.org/ns#"
   xmlns:rdf="http://www.w3.org/1999/02/22-rdf-syntax-ns#"
   xmlns:svg="http://www.w3.org/2000/svg"
   xmlns="http://www.w3.org/2000/svg"
   xmlns:sodipodi="http://sodipodi.sourceforge.net/DTD/sodipodi-0.dtd"
   xmlns:inkscape="http://www.inkscape.org/namespaces/inkscape"
   width="128"
   height="128"
   id="svg3253"
   version="1.1"
   inkscape:version="0.48.4 r9939"
   sodipodi:docname="amunition.svg">
  <defs
     id="defs3255" />
  <sodipodi:namedview
     id="base"
     pagecolor="#ffffff"
     bordercolor="#666666"
     borderopacity="1.0"
     inkscape:pageopacity="0.0"
     inkscape:pageshadow="2"
     inkscape:zoom="0.77382812"
     inkscape:cx="146.26704"
     inkscape:cy="134.95527"
     inkscape:document-units="px"
     inkscape:current-layer="layer1"
     showgrid="false"
     inkscape:window-width="1280"
     inkscape:window-height="745"
     inkscape:window-x="-2"
     inkscape:window-y="-3"
     inkscape:window-maximized="1" />
  <metadata
     id="metadata3258">
    <rdf:RDF>
      <cc:Work
         rdf:about="">
        <dc:format>image/svg+xml</dc:format>
        <dc:type
           rdf:resource="http://purl.org/dc/dcmitype/StillImage" />
        <dc:title></dc:title>
      </cc:Work>
    </rdf:RDF>
  </metadata>
  <g
     inkscape:label="Layer 1"
     inkscape:groupmode="layer"
     id="layer1"
     transform="translate(0,-924.36218)">
    <g
       id="arrow"
       transform="translate(100.9376,150.44913)"
       inkscape:label="#g32670">
      <path
         style="fill:#e6e6e6;fill-opacity:1"
         d="M -71.093105,879.07939 -74.686209,874.86218 -68.522072,867.36218 C -63.582053,861.35158 -61.577693,859.66359 -58.428968,858.86218 -55.103136,858.01569 -50.892512,854.11801 -31,833.47181 -18.075,820.0571 -7.634053,808.62994 -7.797896,808.07812 -7.961739,807.5263 -7.822066,805.82855 -7.487518,804.30535 -6.990745,802.04356 -5.690539,801.03069 -0.394522,798.77985 5.18186,796.40986 6.27847,796.2226 7.43429,797.44299 9.38571,799.50345 2.390306,814.01409 -0.330627,813.54983 -2.503905,813.17901 -1.837539,812.58266 -28.75,838.98322 -45.48501,855.39992 -50,860.37448 -50,862.39624 -50,865.73255 -52.159824,870.34441 -53.726947,870.35438 -54.401768,870.35838 -55.748235,871.59968 -56.719095,873.11218 -60.410916,878.86365 -64.593543,883.37004 -66.202251,883.32939 -66.916013,883.31139 -69.116897,881.39885 -71.093105,879.07939 z M -2.581787,809.75519 C -1.711804,809.42135 -1,808.76047 -1,808.28658 -1,807.81268 -1.753124,807.71395 -2.673609,808.06717 -3.941512,808.55371 -4.191534,808.30369 -3.704994,807.03579 -3.35177,806.1153 -3.498646,805.36218 -4.031385,805.36218 -4.564123,805.36218 -5,806.48718 -5,807.86218 -5,810.58425 -4.91523,810.65062 -2.581787,809.75519 z M 4.74986,799.77871 C 3.796906,798.82575 1.886372,800.36931 2.596556,801.51841 3.018675,802.20141 3.578021,802.18416 4.2962,801.46601 4.88496,800.87725 5.08911,800.11798 4.74986,799.77874 z"
         id="path32676"
         inkscape:connector-curvature="0" />
      <path
         style="fill:#c87137;fill-opacity:1"
         d="M -70.428348,879.61218 C -72.383215,877.54968 -73.986556,875.49441 -73.991326,875.04492 -73.999626,874.26609 -70.628582,869.83438 -64.839945,863.01405 -63.311524,861.21322 -60.546311,859.45071 -58.339945,858.87104 -55.152578,858.03363 -50.526142,853.74156 -31.116748,833.61534 -10.330008,812.0609 -7.709789,808.97801 -7.519994,805.85192 -7.267083,801.68622 -7.998729,802.36073 -0.090561,799.00269 4.1028,797.22207 6.65831,796.62049 7.30059,797.26277 7.94287,797.90505 7.13375,800.85798 4.96043,805.80333 2.149514,812.19952 1.268575,813.36218 -0.766859,813.36218 -2.565206,813.36218 -9.081411,819.21512 -26.58614,836.55338 -47.440209,857.20913 -50,860.09485 -50,862.94842 -50,865.09217 -50.839076,866.93147 -52.535886,868.50722 -53.930623,869.80245 -57.313215,873.67468 -60.052756,877.11218 -62.792297,880.54968 -65.447808,883.36218 -65.953892,883.36218 -66.459975,883.36218 -68.47348,881.67468 -70.428348,879.61218 z M -57.007164,864.11218 C -56.992264,862.55196 -58.975696,863.44825 -60.072303,865.49728 -60.897446,867.03907 -61.428252,867.28729 -61.982487,866.39052 -62.527979,865.50789 -62.947868,865.46881 -63.434017,866.25542 -63.810226,866.86414 -63.547783,867.36218 -62.850809,867.36218 -62.153835,867.36218 -63.477278,869.29171 -65.791792,871.65003 -68.106306,874.00835 -70,876.5541 -70,877.30725 -70,878.06039 -67.078224,875.56836 -63.507164,871.76939 -59.936104,867.97043 -57.011104,864.52468 -57.007164,864.11218 z M -55,867.02235 C -55,866.45319 -57.009958,868.20931 -59.466573,870.92484 -61.923188,873.64038 -63.938269,876.31218 -63.944531,876.86218 -63.950831,877.41218 -61.940835,875.65606 -59.477958,872.95969 -57.015081,870.26332 -55,867.59152 -55,867.02235 z M -26,833.86218 C -25.315311,833.03718 -24.980111,832.36218 -25.255111,832.36218 -25.530111,832.36218 -26.315311,833.03718 -27,833.86218 -27.684689,834.68718 -28.019889,835.36218 -27.744889,835.36218 -27.469889,835.36218 -26.684689,834.68718 -26,833.86218 z M -1.497714,808.98417 C 0.322955,807.65286 0.325299,807.54462 -1.428574,805.79075 -3.17178,804.04754 -3.296043,804.04656 -4.553303,805.76595 -5.817111,807.49431 -5.524372,810.36217 -4.084141,810.36217 -3.698106,810.36217 -2.534214,809.74206 -1.497714,808.98416 z M 5.76793,800.36218 C 6.76852,798.75998 6.76664,798.36523 5.75893,798.37749 3.64102,798.40329 1.704856,800.07486 2.431362,801.25038 3.431603,802.8688 4.35676,802.62256 5.76839,800.36218 z"
         id="path32674"
         inkscape:connector-curvature="0" />
      <path
         style="fill:#502d16;fill-opacity:1"
         d="M -68.593748,880.78622 C -73.927436,875.48109 -74.48947,874.4606 -72.837427,873.08092 -72.034789,872.41061 -69.010943,869.06405 -66.11777,865.64412 -62.19223,861.00386 -60.005601,859.26626 -57.500317,858.79626 -54.799166,858.28952 -51.055072,854.91262 -38.339185,841.51432 -29.646988,832.35564 -19.039773,821.29286 -14.767595,816.93036 -8.807913,810.84468 -7,808.34553 -7,806.19291 -7,803.32864 -3.79634,800.66029 3.402126,797.52888 7.94846,795.55118 8.31925,797.38009 4.90289,804.93142 1.684189,812.04585 0.509131,813.49478 -1.436385,812.74822 -2.051149,812.51231 -13.336422,823.13587 -26.514769,836.35613 -47.356924,857.26457 -50.43799,860.7496 -50.187966,863.1332 -49.970367,865.20768 -50.802053,866.72242 -53.611139,869.36781 L -57.321746,872.86218 -54.578411,869.15968 C -52.780849,866.73362 -52.048612,864.78438 -52.454466,863.50564 -52.944106,861.96292 -49.871543,858.31206 -37.786928,846.07747 -29.379118,837.56532 -18.279827,826.04713 -13.121838,820.4815 -7.913957,814.86204 -2.941588,810.36218 -1.939933,810.36218 0.480635,810.36218 8.08541,799.11426 6.64125,797.67009 5.7931,796.82195 -4.073622,802.63123 -5.126574,804.59869 -5.668783,805.61181 -5.974617,807.29037 -5.806204,808.32881 -5.595673,809.62696 -10.030515,814.85334 -20,825.05593 -27.975,833.21741 -39.3375,844.91846 -45.25,851.05826 -51.1625,857.19806 -56,861.80318 -56,861.29186 -56,859.02622 -59.039714,860.76698 -63.580977,865.63327 -72.199212,874.86833 -72.144447,874.78238 -70.68337,876.78052 -69.491286,878.41079 -68.853883,878.02964 -63.041117,872.21066 -56.485313,865.64784 -56.631848,866.70294 -63.25,873.71469 -66.570498,877.23267 -68.22404,881.36218 -66.312212,881.36218 -65.933928,881.36218 -63.879765,879.44968 -61.747405,877.11218 -57.415765,872.36382 -58.235992,874.94177 -62.757293,880.28622 L -65.653965,883.71027 -68.593748,880.78622 z M -1.5,805.36218 C -1.839919,804.81218 -1.641476,804.36218 -1.059017,804.36218 -0.476558,804.36218 0,804.81218 0,805.36218 0,805.91218 -0.198442,806.36218 -0.440983,806.36218 -0.683524,806.36218 -1.160081,805.91218 -1.5,805.36218 z"
         id="path32672"
         inkscape:connector-curvature="0" />
    </g>
    <path
       style="fill:#d38d5f;stroke:#000000;stroke-width:1;stroke-linecap:butt;stroke-linejoin:miter;stroke-miterlimit:4;stroke-opacity:1;stroke-dasharray:none"
       d="M 200.28282,1059.185 C 200.28282,1059.185 194.86661,1002.8742 194.86661,974.63209 194.86661,946.39003 200.28282,890.07919 200.28282,890.07919 L 211.71701,866.00718 221.34582,892.48639 C 221.34582,892.48639 226.97527,947.98745 227.06291,975.83569 227.14925,1003.2705 221.94761,1057.9814 221.94761,1057.9814 z"
       id="bolt"
       inkscape:connector-curvature="0"
       sodipodi:nodetypes="cscccscc"
       inkscape:label="#path3324" />
  </g>
</svg>
