<?xml version="1.0" encoding="UTF-8" standalone="no"?>
<!-- Created with Inkscape (http://www.inkscape.org/) -->

<svg
   xmlns:dc="http://purl.org/dc/elements/1.1/"
   xmlns:cc="http://creativecommons.org/ns#"
   xmlns:rdf="http://www.w3.org/1999/02/22-rdf-syntax-ns#"
   xmlns:svg="http://www.w3.org/2000/svg"
   xmlns="http://www.w3.org/2000/svg"
   xmlns:sodipodi="http://sodipodi.sourceforge.net/DTD/sodipodi-0.dtd"
   xmlns:inkscape="http://www.inkscape.org/namespaces/inkscape"
   inkscape:version="0.48.4 r9939"
   version="1.1"
   id="svg3732"
   height="128"
   width="128"
   sodipodi:docname="armor.svg">
  <defs
     id="defs3734">
    <filter
       id="filter7859"
       color-interpolation-filters="sRGB">
      <feGaussianBlur
         id="feGaussianBlur7861"
         stdDeviation="0.64978816" />
    </filter>
    <filter
       id="filter5562"
       y="-0.10011"
       x="-0.14940999"
       height="1.2002"
       width="1.2988"
       color-interpolation-filters="sRGB">
      <feGaussianBlur
         id="feGaussianBlur5564"
         stdDeviation="1.1475711" />
    </filter>
    <filter
       id="filter10844"
       color-interpolation-filters="sRGB">
      <feGaussianBlur
         id="feGaussianBlur10846"
         stdDeviation="0.64978816" />
    </filter>
  </defs>
  <sodipodi:namedview
     id="base"
     pagecolor="#ffffff"
     bordercolor="#666666"
     borderopacity="1.0"
     inkscape:pageopacity="0.0"
     inkscape:pageshadow="2"
     inkscape:zoom="3.069061"
     inkscape:cx="-87.42121"
     inkscape:cy="72.819788"
     inkscape:document-units="px"
     inkscape:current-layer="layer1"
     showgrid="false"
     showborder="true"
     fit-margin-top="0"
     fit-margin-left="0"
     fit-margin-right="0"
     fit-margin-bottom="0"
     inkscape:window-width="1280"
     inkscape:window-height="745"
     inkscape:window-x="-2"
     inkscape:window-y="-3"
     inkscape:window-maximized="1" />
  <metadata
     id="metadata3737">
    <rdf:RDF>
      <cc:Work
         rdf:about="">
        <dc:format>image/svg+xml</dc:format>
        <dc:type
           rdf:resource="http://purl.org/dc/dcmitype/StillImage" />
        <dc:title />
      </cc:Work>
    </rdf:RDF>
  </metadata>
  <g
     inkscape:label="Layer 1"
     inkscape:groupmode="layer"
     id="layer1"
     transform="translate(0,-924.36218)">
    <g
       id="g39930"
       transform="translate(592.34483,56.09788)">
      <path
         style="fill:#e6e6e6;fill-opacity:1"
         d="M -257.57026,973.48881 C -275.05847,965.21555 -278.95991,958.14159 -272.13714,947.07669 -269.59557,942.95487 -267.03324,935.5809 -267.01455,932.33469 -267.00655,930.94456 -267.67949,928.83708 -268.50999,927.65138 -269.34048,926.46569 -270.29427,923.49435 -270.62953,921.04841 -271.13604,917.35304 -270.88078,916.24296 -269.11954,914.48172 -264.98437,910.34655 -266.13562,907.02387 -275.75,895.34513 -279.45287,890.84719 -280,889.55981 -280,885.34496 -280,881.34444 -279.55659,880.15855 -277.43752,878.49169 -274.11335,875.8769 -270.02783,874.6771 -261.94681,873.94251 -256.49136,873.4466 -255.06751,873.6471 -253.44681,875.13948 -249.12967,879.11483 -246.41242,880.36218 -242.06966,880.36218 -238.29155,880.36218 -237.01823,879.80941 -233.99408,876.8564 L -230.40384,873.35063 -221.95192,874.47347 C -212.03288,875.79122 -210.93135,876.27456 -207.45242,880.83567 -203.94049,885.44005 -204.77034,888.96471 -210.83369,895.19715 -213.40016,897.8352 -216.59831,902.34551 -217.94069,905.22007 -220.33073,910.33806 -220.34418,910.50951 -218.58898,913.48083 -217.4558,915.39915 -216.85716,918.23401 -216.96131,921.18866 -217.54111,937.63734 -217.5266,937.79982 -215.02629,942.86218 -213.66806,945.61218 -212.54192,948.31218 -212.52375,948.86218 -212.50555,949.41218 -211.92274,950.85926 -211.22852,952.07792 -209.13602,955.75117 -211.62971,959.50422 -220.65106,966.25902 -225.13414,969.61576 -229.22689,972.36218 -229.74607,972.36218 -230.26524,972.36218 -231.50451,973.26218 -232.5,974.36218 -234.55569,976.63369 -237.26345,976.95661 -238.78901,975.11218 -240.22644,973.37432 -243.99888,963.23817 -243.9995,961.11218 -244.0005,956.81461 -245.85755,960.05686 -247.69328,967.562 -248.79638,972.0719 -250.10416,975.89652 -250.59946,976.06116 -251.09476,976.2258 -254.23162,975.06825 -257.57026,973.48881 z M -224.87244,928.61218 C -223.60293,926.99342 -223.64999,926.9722 -225.5,928.32921 -226.6,929.13608 -227.6875,929.92358 -227.91667,930.07921 -228.14583,930.23484 -227.86347,930.36218 -227.28911,930.36218 -226.71479,930.36218 -225.62729,929.57468 -224.87244,928.61218 z M -241.8125,920.67907 C -242.53437,920.39019 -243.39687,920.42572 -243.72917,920.75797 -244.06146,921.09026 -243.47083,921.32661 -242.41667,921.28319 -241.25172,921.23519 -241.01477,920.99824 -241.8125,920.67902 z M -223.27123,900.75762 C -223.97112,900.05772 -227,901.47659 -227,902.50435 -227,903.01518 -226.06218,902.93064 -224.91435,902.31634 -223.76725,901.70243 -223.02784,901.00101 -223.27123,900.75762 z"
         id="path39936"
         inkscape:connector-curvature="0" />
      <path
         style="fill:#8c8c8c;fill-opacity:1"
         d="M -257.74405,973.06191 C -266.60411,968.52161 -272.88695,963.78972 -274.02311,960.8014 -275.65083,956.52017 -275.15636,953.67149 -271.56039,946.61338 -266.59225,936.86203 -265.75135,932.2965 -268.11213,927.89178 -270.71676,923.03211 -270.59296,916.62226 -267.83784,913.68957 -265.86054,911.58483 -265.78046,911.03829 -266.90125,907.29745 -267.62382,904.88572 -270.33389,900.80611 -273.50443,897.35736 -281.87439,888.25294 -282.07716,880.96725 -274.07283,876.93385 -272.65778,876.2208 -267.80345,875.34127 -263.28543,874.97934 L -255.07087,874.32129 -250.45884,877.84174 C -244.20597,882.61466 -240.36033,882.58595 -234.98118,877.72622 L -230.9566,874.09025 -223.5183,874.76429 C -213.72719,875.65154 -210.95391,876.72775 -208.25,880.68936 -204.79336,885.75384 -205.28276,889.26364 -210.09333,893.90923 -215.04306,898.68921 -219.98951,906.93855 -219.95881,910.36218 -219.94651,911.73718 -219.27571,913.73569 -218.4682,914.80331 -216.76159,917.05964 -216.5194,924.59565 -218.06092,927.476 -219.31018,929.81026 -217.6554,939.54351 -215.40859,943.07674 -212.91185,947.00301 -210.92237,954.20467 -211.59458,956.88297 -212.2657,959.55697 -217.24646,963.80285 -229.36982,972.03562 -234.7207,975.66931 -236.59812,976.47467 -237.86098,975.67807 -239.22545,974.81739 -241.8011,968.68671 -244.50564,959.86218 -245.07732,957.99686 -247.05059,963.54367 -249.39718,973.61218 -249.74969,975.12468 -250.36703,976.33956 -250.76905,976.31191 -251.17107,976.28421 -254.30982,974.82176 -257.74405,973.06191 z M -222,964.79181 C -222,964.51681 -222.9,964.77351 -224,965.36218 -225.1,965.95088 -226,966.65755 -226,966.93255 -226,967.20755 -225.1,966.95085 -224,966.36218 -222.9,965.77348 -222,965.06681 -222,964.79181 z M -214,957.488 C -214,957.213 -215.35,958.28138 -217,959.86218 -218.65,961.44298 -220,962.96136 -220,963.23636 -220,963.51136 -218.65,962.44298 -217,960.86218 -215.35,959.28138 -214,957.763 -214,957.488 z M -228.71365,953.7141 C -224.88964,951.73663 -216.86457,945.16427 -217.49917,944.52968 -217.74669,944.28216 -219.87314,945.61423 -222.2246,947.48984 -226.74678,951.09688 -231.77581,953.97975 -232.32587,953.28035 -232.50676,953.05036 -233.63208,950.83718 -234.82659,948.36218 -236.0211,945.88718 -236.99878,944.38737 -236.99921,945.02927 -237.00021,946.65968 -233.19913,955.36218 -232.48588,955.36218 -232.16402,955.36218 -230.46652,954.62054 -228.71365,953.7141 z M -220,941.36218 C -220,940.81218 -220.45,940.36218 -221,940.36218 -221.55,940.36218 -222,940.81218 -222,941.36218 -222,941.91218 -221.55,942.36218 -221,942.36218 -220.45,942.36218 -220,941.91218 -220,941.36218 z M -242.26903,938.66919 C -243.242,938.41565 -244.592,938.43232 -245.26903,938.70629 -245.94606,938.98021 -245.15,939.18766 -243.5,939.16728 -241.85,939.14688 -241.29606,938.92278 -242.26903,938.66923 z M -225.75,929.56965 C -223.30554,928.11303 -222.09152,926.36218 -223.52597,926.36218 -224.8461,926.36218 -233.84398,933.8056 -233.39738,934.52822 -233.12082,934.97571 -231.90577,934.4118 -230.69727,933.27508 -229.48877,932.13837 -227.2625,930.47092 -225.75,929.56965 z M -236,925.79644 C -236,923.00381 -239.491,920.32814 -242.97251,920.45237 -245.25959,920.53397 -245.19555,920.6306 -242.29923,921.4682 -237.7229,922.79166 -235.94502,926.29177 -238.30679,929.32814 -239.35191,930.67179 -239.28281,930.69184 -237.75,929.48973 -236.7875,928.73489 -236,927.07291 -236,925.79644 z M -226.92666,919.6333 C -228.26133,919.38221 -230.4067,918.48658 -231.69415,917.64301 -233.52363,916.44429 -233.78596,915.80921 -232.89504,914.73571 -232.06081,913.73052 -232.05612,913.36218 -232.87754,913.36218 -233.49489,913.36218 -233.99999,913.81218 -233.99999,914.36218 -233.99999,914.91218 -234.76242,915.36218 -235.69427,915.36218 -236.83483,915.36218 -236.28112,916.17922 -233.99999,917.86218 -231.9382,919.38332 -229.41498,920.30886 -227.55571,920.226 -224.92387,920.10871 -224.83661,920.02649 -226.92665,919.6333 z M -228,914.81421 C -228,913.63282 -229.89074,913.63507 -230.34429,914.81721 -230.71374,915.77998 -230.41569,916.0754 -229.44907,915.70448 -228.65208,915.39863 -228,914.9981 -228,914.81441 z M -238.5,914.36218 C -238.15093,913.79737 -238.96994,913.36218 -240.38197,913.36218 -241.75697,913.36218 -243.16008,913.81218 -243.5,914.36218 -243.84907,914.92699 -243.03006,915.36218 -241.61803,915.36218 -240.24303,915.36218 -238.83992,914.91218 -238.5,914.36218 z M -238,906.36218 C -238,905.81218 -239.6875,905.41542 -241.75,905.4805 -245.48221,905.59825 -245.48577,905.60243 -242.5,906.36218 -238.17013,907.46394 -238,907.46394 -238,906.36218 z M -229.81838,904.47172 C -223.85019,902.41836 -220,900.32037 -220,899.12163 -220,897.79494 -221.61896,898.293 -225.19518,900.71988 -227.10602,902.01662 -230.31882,903.38701 -232.33472,903.7652 -234.35062,904.14338 -236,904.88241 -236,905.40749 -236,906.6405 -236.21793,906.67349 -229.81838,904.47172 z M -246,895.86218 C -246,895.03718 -246.45,894.36218 -247,894.36218 -247.55,894.36218 -248,895.03718 -248,895.86218 -248,896.68718 -247.55,897.36218 -247,897.36218 -246.45,897.36218 -246,896.68718 -246,895.86218 z M -216,895.36218 C -215.4113,894.26218 -215.10072,893.36218 -215.30983,893.36218 -215.51894,893.36218 -216.50451,894.26218 -217.5,895.36218 -218.49549,896.46218 -218.80606,897.36218 -218.19017,897.36218 -217.57428,897.36218 -216.5887,896.46218 -216,895.36218 z M -239.55237,892.30432 C -241.36488,890.30151 -244,889.67909 -244,891.25377 -244,891.74415 -242.875,892.42772 -241.5,892.77282 -240.09029,893.12664 -238.96557,894.15518 -238.92105,895.13123 -238.86925,896.26691 -238.66201,896.41241 -238.31843,895.55432 -238.03041,894.83499 -238.58568,893.37249 -239.55237,892.30432 z M -270.63837,892.86218 C -270.95496,892.03718 -271.67093,891.36218 -272.22943,891.36218 -272.81474,891.36218 -272.71755,891.99759 -272,892.86218 -271.31531,893.68718 -270.59933,894.36218 -270.40894,894.36218 -270.21855,894.36218 -270.32184,893.68718 -270.63837,892.86218 z M -232.39583,888.63301 C -232.72812,888.30072 -232.96447,888.89135 -232.92105,889.94551 -232.87305,891.11046 -232.63611,891.34741 -232.31689,890.54968 -232.02801,889.8278 -232.06354,888.9653 -232.39579,888.63301 z M -223,889.86218 C -223,889.03718 -223.43588,888.36218 -223.96861,888.36218 -224.50135,888.36218 -224.67821,889.03718 -224.36163,889.86218 -224.04504,890.68718 -223.60917,891.36218 -223.39301,891.36218 -223.17685,891.36218 -223,890.68718 -223,889.86218 z M -265.02896,883.40124 C -262.64835,881.8957 -264.2722,881.57765 -267,883.0152 -268.37794,883.74137 -268.82677,884.33244 -268,884.33213 -267.175,884.33181 -265.83803,883.91291 -265.02896,883.40124 z M -213.45888,883.29565 C -212.39291,881.57087 -213.32736,881.42862 -216.00151,882.90857 -218.41098,884.24204 -218.42194,884.29257 -216.30902,884.32674 -215.10398,884.34624 -213.82141,883.88224 -213.45888,883.29565 z M -231.93565,880.6651 C -230.35554,879.7317 -228.80424,878.29443 -228.48833,877.47116 -228.08861,876.42953 -228.56283,876.56153 -230.04753,877.9052 -231.22102,878.96718 -233.37788,880.3679 -234.84057,881.01791 -236.30326,881.66792 -236.89443,882.23629 -236.15429,882.28096 -235.41415,882.32566 -233.51576,881.59849 -231.93565,880.6651 z"
         id="path39934"
         inkscape:connector-curvature="0" />
      <path
         style="fill:#333333;fill-opacity:1"
         d="M -237.93267,974.42951 C -239.0697,973.29248 -240,971.75632 -240,971.01582 -240,970.27532 -240.62905,968.36282 -241.39789,966.76582 -243.1999,963.02278 -244.28492,959.36218 -243.59238,959.36218 -242.87509,959.36218 -239.00893,967.88605 -238.9682,969.55732 -238.9507,970.27499 -238.32739,971.665 -237.58306,972.64623 -236.29363,974.34603 -236.04723,974.32611 -232.36486,972.22445 -230.23919,971.01124 -227.825,969.48932 -227,968.8424 -226.175,968.19548 -224.6,967.35813 -223.5,966.98164 -222.10884,966.50548 -222.41325,967.05714 -224.5,968.79367 -226.15,970.16679 -227.86752,971.30644 -228.31672,971.32622 -228.76592,971.34602 -230.64812,972.51748 -232.49939,973.92951 L -235.86534,976.49684 -237.93267,974.42951 z M -257.94301,972.809 C -260.93666,971.41549 -265.77416,968.23509 -268.69301,965.74144 -273.63,961.52364 -274,960.89687 -274,956.75161 -274,953.89881 -273.04203,950.41885 -271.33728,947.07894 -269.87279,944.20972 -268.10289,940.06218 -267.40418,937.86218 -266.28936,934.35201 -266.1256,934.19998 -266.0669,936.62065 -266.0112,938.91795 -265.70743,939.22772 -264.25,938.47349 -263.2875,937.97538 -261.375,937.10203 -260,936.53269 -257.60228,935.53989 -257.59076,935.49477 -259.71861,935.42986 -261.14312,935.38636 -261.75371,934.88394 -261.42451,934.02605 -261.08156,933.13235 -261.65323,932.74454 -263.15096,932.85488 -264.78655,932.97538 -265.89511,932.05516 -267.26352,929.44101 -269.42219,925.31719 -269.99834,915.96052 -268.20408,914.16626 -267.26531,913.22749 -266.99861,913.28167 -266.99368,914.41218 -266.97748,918.13252 -255.60321,920.99885 -253.05246,917.92539 -251.70437,916.30104 -242.21341,914.83436 -238.76813,915.71797 -237.52066,916.03791 -235.375,917.32624 -234,918.58093 -231.54497,920.82115 -222.21206,922.44611 -223.46751,920.41475 -223.77635,919.91503 -223.12251,919.21845 -222.01452,918.86679 -220.84267,918.49486 -220,917.35416 -220,916.13981 -220,914.11342 -220.0588,914.10544 -222.00613,915.86773 -224.39083,918.02585 -225.78411,917.28914 -223.54762,915.05266 -222.69643,914.20147 -221.99703,912.01039 -221.99341,910.18361 -221.98941,908.35682 -221.11541,905.54025 -220.05035,903.92456 -218.98529,902.30887 -218.32652,900.64287 -218.58643,900.22234 -218.84633,899.80181 -217.02071,897.57892 -214.52949,895.2826 -212.03827,892.98627 -210,890.68263 -210,890.16339 -210,889.64415 -209.30947,888.52879 -208.46548,887.6848 -207.24868,886.46801 -207.18137,885.84857 -208.14037,884.69305 -209.18621,883.43289 -209.48393,883.48103 -210.34174,885.04899 -212.79904,889.54062 -218.93175,895.97318 -223.62112,898.97765 -229.01467,902.43329 -239.48196,904.95875 -245.03379,904.14391 -246.66521,903.90447 -248,904.04611 -248,904.45873 -248,904.87132 -249.34677,904.53703 -250.99283,903.71587 -253.85743,902.28682 -258,902.62512 -258,904.28811 -258,904.72324 -254.57286,905.66549 -250.38414,906.382 -241.20683,907.95183 -230.26746,906.63256 -224.56549,903.26832 -222.5575,902.08358 -220.68515,901.3437 -220.4047,901.62414 -220.12426,901.90459 -221.60597,903.17412 -223.6974,904.44533 -225.78883,905.71653 -227.83061,907.23036 -228.23469,907.80939 -228.72769,908.51585 -228.97441,908.47394 -228.98469,907.68199 -228.99579,906.82692 -229.89352,906.75805 -232.2434,907.43199 -234.02727,907.94359 -237.53727,908.36218 -240.0434,908.36218 -242.54953,908.36218 -245.15874,908.92092 -245.84164,909.60382 -246.63442,910.3966 -247.33936,910.48697 -247.79164,909.85382 -249.22229,907.85103 -256.97242,906.69952 -257.98579,908.33918 -258.52948,909.2189 -258.94738,909.25634 -259.43402,908.46894 -259.81023,907.86022 -259.64148,907.36218 -259.05902,907.36218 -256.69094,907.36218 -258.26099,905.63391 -262.5,903.57444 -266.82537,901.47302 -268.26141,901.70077 -265.85556,904.10662 -265.22611,904.73607 -264.51798,907.18238 -264.28193,909.54287 -264.04588,911.90337 -263.38078,914.40337 -262.80393,915.09843 -261.44873,916.73134 -255.30224,916.74179 -254.72024,915.11213 -254.4747,914.42463 -253.88773,914.2241 -253.41586,914.6665 -252.0791,915.9198 -255.11862,917.32992 -259.1933,917.34682 -263.48752,917.36462 -266,914.65561 -266,910.00766 -266,906.69461 -268.53716,902.20182 -274.71612,894.57322 -279.07927,889.18643 -279.7745,886.52942 -278.02493,881.92769 -276.49403,877.90112 -271.83767,875.71416 -263.44378,875.07933 -256.55296,874.55818 -255.62977,874.72204 -251.97486,877.11498 -249.78869,878.54631 -248,880.09127 -248,880.54824 -248,881.44451 -251.02711,879.92993 -254.89556,877.09813 -256.22093,876.12792 -257.51813,875.54693 -257.77823,875.80703 -258.30967,876.33846 -252.82564,881.21472 -249.60247,883.07669 -247.01547,884.57117 -240.67881,884.69246 -236,883.33707 -231.50785,882.03575 -226.35914,877.60298 -227.73811,876.22402 -228.41107,875.55105 -229.66255,876.07166 -231.52815,877.80064 -235.00473,881.02262 -236.28819,880.18743 -232.94697,876.87737 -230.62934,874.58136 -230.09697,874.49233 -222.87509,875.19306 -217.26258,875.73764 -214.30377,876.58139 -211.6643,878.38998 -204.33298,883.41348 -204.39554,887.7055 -211.91691,895.72104 -214.57019,898.54864 -217.47431,902.30228 -218.37052,904.06247 -220.20979,907.67485 -220.50564,912.45649 -218.98402,913.97811 -217.60586,915.35627 -217.45721,925.04789 -218.74806,929.36213 -219.5272,931.96617 -219.82148,932.28615 -219.89764,930.61213 -220.03003,927.70195 -220.77941,927.77661 -224.18485,931.03923 -225.72171,932.51163 -227.31379,933.38167 -227.72281,932.97266 -228.13183,932.56364 -226.56152,930.64662 -224.23324,928.71262 -219.84859,925.07049 -218.10845,921.16389 -221.93532,923.55381 -222.99974,924.21855 -223.64818,925.12236 -223.3763,925.56228 -223.10442,926.0022 -223.2863,926.36213 -223.78047,926.36213 -224.27464,926.36213 -225.19155,925.23713 -225.81805,923.86213 -227.00839,921.24962 -228.44957,920.66249 -229.5,922.36213 -230.29298,923.6452 -234,923.67106 -234,922.39353 -234,921.86079 -234.64049,921.67069 -235.42331,921.97109 -236.22544,922.2789 -237.30624,921.65845 -237.89976,920.54945 -238.83903,918.7944 -239.32132,918.70829 -242.36028,919.75303 -246.95505,921.33264 -249.00306,923.1819 -248.98469,925.73459 -248.96359,928.66398 -248.02872,929.76185 -244.2559,931.28779 -239.86302,933.06453 -236,930.74898 -236,926.33909 -236,924.70177 -235.80961,923.36214 -235.57692,923.36214 -235.34423,923.36214 -233.80459,924.71139 -232.15551,926.36048 L -229.15717,929.35882 -231.32338,930.87609 C -232.61174,931.77849 -233.62678,931.98179 -233.82813,931.37775 -234.266,930.06414 -237,930.05068 -237,931.36215 -237,931.91215 -236.4949,932.36215 -235.87755,932.36215 -235.10996,932.36215 -235.15501,932.844 -236.02006,933.88632 -236.71578,934.72461 -237.49945,935.19604 -237.76155,934.93393 -238.02365,934.67183 -238.89167,935.11096 -239.69048,935.90977 -242.80887,939.02816 -248.66334,936.57528 -260.75,927.08632 -265.9381,923.01326 -267,922.51111 -267,924.1308 -267,925.20396 -265.80326,926.93254 -264.34057,927.97208 -262.87788,929.01162 -259.88632,931.43715 -257.69265,933.36215 -255.49898,935.28715 -253.65822,936.69661 -253.60208,936.49427 -253.54598,936.29194 -251.75754,936.85444 -249.62788,937.74427 -247.49821,938.63411 -244.27526,939.36215 -242.46577,939.36215 -239.40068,939.36215 -239.12908,939.63864 -238.49242,943.40703 -237.92378,946.77278 -233.51814,956.36215 -232.54046,956.36215 -231.43737,956.36215 -222.78723,950.71345 -219.5,947.84649 -216.42853,945.16771 -215.81617,944.15452 -216.86201,943.48178 -218.14085,942.65916 -220.28422,934.32397 -219.43676,933.46902 -219.22244,933.2528 -218.87971,933.7028 -218.67515,934.46902 -218.47059,935.23524 -217.72453,937.43715 -217.01723,939.36215 -216.30994,941.28715 -215.74411,943.87465 -215.75983,945.11215 -215.77553,946.34965 -215.41899,947.36215 -214.96745,947.36215 -214.51592,947.36215 -213.45643,948.7454 -212.61302,950.43605 -210.49147,954.6888 -211.54379,958.91846 -215.37988,961.55703 L -218.5,963.70314 -215.63988,960.61299 C -214.06682,958.91341 -212.96906,956.95498 -213.20041,956.26092 -213.45956,955.48346 -214.94146,956.45152 -217.06052,958.78259 -218.95224,960.86356 -222.525,963.73293 -225,965.15897 -227.475,966.58501 -230.89248,968.7891 -232.59439,970.05696 -234.29631,971.32481 -235.96574,972.36215 -236.30425,972.36215 -236.64276,972.36215 -237.45473,970.57643 -238.10864,968.39388 -239.02961,965.31994 -239.02772,964.10047 -238.10064,962.98291 -237.28527,962.00045 -237.2378,961.33347 -237.95186,960.89216 -238.52855,960.53574 -239.0004,960.97226 -239.0004,961.86215 -239.0004,962.75207 -239.4504,963.20207 -240.0004,962.86215 -240.5504,962.52223 -241.00729,961.48317 -241.01571,960.55313 -241.02371,959.62309 -241.47413,958.18715 -242.01571,957.36215 -242.88001,956.04555 -243.11602,956.04201 -243.94603,957.33315 -246.07425,960.64386 -245.76867,957.36395 -243.4033,951.50791 -240.43894,944.16889 -240.32747,938.52994 -243.26015,944.26575 -244.21729,946.13775 -245.0004,948.41025 -245.0004,949.31575 -245.0004,950.22125 -245.3935,951.38961 -245.87394,951.91211 -246.35439,952.43461 -247.98476,956.80727 -249.49698,961.62913 -251.0092,966.451 -252.58821,970.60737 -253.0059,970.86551 -253.42358,971.12365 -254.83072,970.51759 -256.13286,969.5187 -257.43501,968.51981 -259.33459,967.39715 -260.35415,967.0239 -261.5591,966.58277 -261.98858,965.7737 -261.58126,964.71224 -261.05187,963.33268 -261.19659,963.28004 -262.51366,964.37312 -263.82866,965.46447 -264.57331,965.21267 -267.27065,962.76456 -269.02951,961.16821 -270.8475,959.41211 -271.31062,958.86211 -271.82022,958.25692 -271.99215,958.45432 -271.7461,959.36211 -271.40821,960.60878 -268.32071,963.34143 -259.47875,970.2196 -258.91684,970.65671 -257.90434,970.83009 -257.22875,970.60489 -256.55316,970.3797 -256.0004,970.63479 -256.0004,971.17179 -256.0004,973.41698 -252.54416,973.40972 -250.81373,971.16089 -249.40654,969.33213 -249.04032,969.2032 -249.02264,970.53032 -248.98854,973.09102 -250.08865,975.36318 -251.35739,975.35234 -251.98604,975.34734 -254.94975,974.20243 -257.9434,972.80893 z M -253,967.80316 C -253,967.56062 -253.45,967.36218 -254,967.36218 -254.55,967.36218 -255,967.83874 -255,968.4212 -255,969.00366 -254.55,969.2021 -254,968.86218 -253.45,968.52226 -253,968.0457 -253,967.80316 z M -230.46461,964.25067 C -229.63771,961.64535 -231.97334,959.03098 -234.32246,959.93242 -235.3576,960.32965 -236,961.68401 -236,963.46917 -236,965.86701 -235.58363,966.36218 -233.56739,966.36218 -231.97021,966.36218 -230.90462,965.63702 -230.46461,964.25067 z M -233.41705,964.49639 C -233.84782,963.79939 -233.93021,962.95906 -233.60014,962.62898 -232.70517,961.73402 -231.72937,963.05028 -232.21275,964.50043 -232.55147,965.5166 -232.78702,965.51581 -233.41705,964.49643 z M -253.74739,963.50421 C -253.14911,961.21638 -254.63662,958.36218 -256.42724,958.36218 -258.53288,958.36218 -260.22546,961.07646 -259.51523,963.31419 -258.67493,965.96174 -254.42665,966.1017 -253.74739,963.50421 z M -257.83333,962.36218 C -257.32998,960.85213 -255.72189,960.69651 -255.25,962.11218 -255.02083,962.79968 -255.58333,963.36218 -256.5,963.36218 -257.41667,963.36218 -258.01667,962.91218 -257.83333,962.36218 z M -227,964.36218 C -227,963.81218 -227.45,963.36218 -228,963.36218 -228.55,963.36218 -229,963.81218 -229,964.36218 -229,964.91218 -228.55,965.36218 -228,965.36218 -227.45,965.36218 -227,964.91218 -227,964.36218 z M -220,959.36218 C -220,958.81218 -220.45,958.36218 -221,958.36218 -221.55,958.36218 -222,958.81218 -222,959.36218 -222,959.91218 -221.55,960.36218 -221,960.36218 -220.45,960.36218 -220,959.91218 -220,959.36218 z M -216.27273,952.36218 C -216.27273,947.64417 -217.42997,947.35105 -221.42643,951.05677 -223.48571,952.96624 -223.93436,953.88406 -222.96622,954.20677 -222.2148,954.45725 -221.4275,954.14467 -221.21667,953.51218 -221.00583,952.87968 -220.34583,952.36218 -219.75,952.36218 -219.15417,952.36218 -218.96276,952.65828 -219.32466,953.02017 -220.03861,953.73413 -218.22152,956.36218 -217.01392,956.36218 -216.60626,956.36218 -216.27273,954.56218 -216.27273,952.36218 z M -250.85199,947.86218 C -247.54612,939.71652 -247.49222,939.36218 -249.55902,939.36218 -250.46772,939.36218 -250.82531,939.83582 -250.41627,940.49765 -250.0303,941.12216 -251.08224,940.62192 -252.75392,939.38599 -255.45338,937.3902 -256.1874,937.26892 -259.31667,938.30167 -261.25451,938.94122 -263.377,940.11151 -264.03332,940.90232 -264.68963,941.69313 -265.67384,942.06376 -266.22044,941.72594 -266.83084,941.34869 -266.9548,941.92922 -266.54174,943.23066 -266.01615,944.88666 -266.21122,945.21836 -267.43461,944.7489 -268.29557,944.41852 -269,944.56791 -269,945.08088 -269,947.21863 -257.43249,955.58094 -255.09645,955.13195 -254.3245,954.98357 -252.41449,951.71218 -250.85199,947.86218 z M -256.5,952.36218 C -256.83992,951.81218 -256.64148,951.36218 -256.05902,951.36218 -255.47656,951.36218 -255,951.81218 -255,952.36218 -255,952.91218 -255.19844,953.36218 -255.44098,953.36218 -255.68352,953.36218 -256.16008,952.91218 -256.5,952.36218 z M -263.42857,947.79075 C -265.36639,945.85293 -265.44757,944.97645 -263.62442,945.67606 -262.86786,945.96638 -261.09817,945.60696 -259.69178,944.8773 -255.87903,942.89922 -251,942.00412 -251,943.28273 -251,943.87642 -251.3375,944.28951 -251.75,944.2007 -252.1625,944.1119 -253.76679,944.56188 -255.3151,945.2007 -256.8634,945.83951 -258.5509,946.36218 -259.0651,946.36218 -259.57929,946.36218 -260,947.03718 -260,947.86218 -260,949.80358 -261.44587,949.77346 -263.42857,947.79078 z M -213,953.4212 C -213,952.90366 -213.45,952.2021 -214,951.86218 -214.55,951.52226 -215,951.94568 -215,952.80316 -215,953.66062 -214.55,954.36218 -214,954.36218 -213.45,954.36218 -213,953.93874 -213,953.4212 z M -231,929.33079 C -231,928.13363 -233.82062,926.84947 -234.64326,927.67211 -235.51897,928.54782 -234.03361,930.36218 -232.44098,930.36218 -231.64844,930.36218 -231,929.89806 -231,929.33079 z M -258.63837,923.86218 C -259.24697,922.2762 -261,921.78134 -261,923.19551 -261,924.25303 -259.90691,925.36218 -258.86472,925.36218 -258.42365,925.36218 -258.32179,924.68718 -258.63837,923.86218 z M -234.5,919.36218 C -234.83992,918.81218 -235.54148,918.36218 -236.05902,918.36218 -236.57656,918.36218 -237,918.81218 -237,919.36218 -237,919.91218 -236.29844,920.36218 -235.44098,920.36218 -234.58352,920.36218 -234.16008,919.91218 -234.5,919.36218 z M -241.5,918.36218 C -241.16008,917.81218 -241.5835,917.36218 -242.44098,917.36218 -243.29844,917.36218 -244,917.81218 -244,918.36218 -244,918.91218 -243.57656,919.36218 -243.05902,919.36218 -242.54148,919.36218 -241.83992,918.91218 -241.5,918.36218 z M -258,902.37674 C -258,900.68562 -265.394,896.46789 -266.5,897.52812 -267.16069,898.16147 -266.99103,898.78169 -266,899.35599 -265.175,899.83408 -263.6,900.91675 -262.5,901.76191 -260.2098,903.52154 -258,903.82346 -258,902.37674 z M -252,900.36218 C -252,899.81218 -252.45,899.36218 -253,899.36218 -253.55,899.36218 -254,899.81218 -254,900.36218 -254,900.91218 -253.55,901.36218 -253,901.36218 -252.45,901.36218 -252,900.91218 -252,900.36218 z M -238.75,899.97013 C -236.54322,898.29495 -236.49778,894.57461 -238.655,892.19092 -240.53443,890.11417 -245.00677,889.76894 -246.80001,891.56218 -248.35009,893.11226 -248.35009,898.61209 -246.80001,900.16218 -245.22106,901.74113 -240.94874,901.63921 -238.75001,899.97013 z M -244.75,898.71141 C -245.4375,898.42767 -246,897.13834 -246,895.84623 -246,892.78216 -242.41868,891.51493 -240.15544,893.77816 -237.45189,896.48172 -240.97828,900.26805 -244.75,898.71141 z M -230,899.30316 C -230,898.7207 -229.65804,898.45549 -229.24009,898.71379 -227.79748,899.60538 -222.48487,896.5903 -217.75,892.19278 -212.55853,887.37119 -211.83094,885.8232 -215.1661,886.69537 -216.4757,887.03783 -218.39856,886.50251 -220.02898,885.34154 -222.88261,883.30958 -224.74844,883.75544 -222.86888,886.02017 -222.18931,886.839 -222.14496,887.36218 -222.75511,887.36218 -223.30511,887.36218 -224.31531,886.68718 -225,885.86218 -225.68469,885.03718 -227.05229,884.36218 -228.03911,884.36218 -229.02593,884.36218 -229.98333,883.96691 -230.16667,883.4838 -230.62193,882.28412 -235,884.01742 -235,885.39734 -235,886.07851 -234.14378,886.23047 -232.75,885.79667 -230.57869,885.12087 -230.56121,885.16499 -232.25,887.05802 -234.57344,889.66246 -234.46464,890.57705 -231.5,893.36218 -230.125,894.65392 -229,895.38081 -229,894.97748 -229,894.57414 -228.46737,894.57333 -227.81638,894.97548 -226.1291,896.01826 -229.90734,897.3072 -232.75,896.65857 -234.03883,896.36448 -235,896.61867 -235,897.25357 -235,897.8632 -234.325,898.36198 -233.5,898.36198 -232.675,898.36198 -232,898.81198 -232,899.36198 -232,899.91198 -231.55,900.36198 -231,900.36198 -230.45,900.36198 -230,899.88542 -230,899.30296 z M -225.019,893.88507 C -223.57887,892.14983 -223,891.96923 -223,893.25519 -223,893.74635 -223.73865,894.43165 -224.64144,894.77808 -226.01392,895.30475 -226.07578,895.15842 -225.019,893.88507 z M -229.45292,892.02027 C -231.96766,890.18144 -230.80246,887.10922 -227.75447,887.54204 -226.12541,887.77337 -225.5,888.53259 -225.5,890.27885 -225.5,893.21597 -226.94632,893.85314 -229.45292,892.02027 z M -267,895.4295 C -267,895.03422 -268.11113,893.66695 -269.46918,892.39113 -270.82723,891.11531 -271.75634,889.77694 -271.53386,889.41697 -271.31139,889.057 -272.01047,888.21222 -273.08738,887.53968 -276.70649,885.27951 -276.55691,888.99274 -272.85967,893.19229 -269.93372,896.51576 -267,897.63585 -267,895.4295 z M -253.82874,893.70719 C -248.58541,888.96204 -255.66348,882.52039 -261.37124,886.84287 -264.7859,889.42881 -261.65705,894.94939 -256.57874,895.29879 -256.07205,895.33369 -254.83455,894.61744 -253.82874,893.70719 z M -260,891.40407 C -261.32123,890.55006 -261.30473,890.23918 -259.86151,888.79556 -257.81324,886.74673 -253.73832,887.75647 -254.20335,890.19762 -254.57179,892.13178 -257.82626,892.80913 -260,891.40407 z M -249,894.4212 C -249,893.90366 -249.45,893.2021 -250,892.86218 -250.55,892.52226 -251,892.94568 -251,893.80316 -251,894.66062 -250.55,895.36218 -250,895.36218 -249.45,895.36218 -249,894.93874 -249,894.4212 z M -233,893.80316 C -233,892.9457 -233.45,892.52226 -234,892.86218 -235.29391,893.66186 -235.29391,895.36218 -234,895.36218 -233.45,895.36218 -233,894.66062 -233,893.80316 z M -266,890.36218 C -266,889.81218 -266.45,889.36218 -267,889.36218 -267.55,889.36218 -268,889.81218 -268,890.36218 -268,890.91218 -267.55,891.36218 -267,891.36218 -266.45,891.36218 -266,890.91218 -266,890.36218 z M -236,886.36218 C -236,885.81218 -236.45,885.36218 -237,885.36218 -237.55,885.36218 -238,885.81218 -238,886.36218 -238,886.91218 -237.55,887.36218 -237,887.36218 -236.45,887.36218 -236,886.91218 -236,886.36218 z M -275.5427,885.43128 C -275.22627,884.91928 -275.37756,884.24687 -275.8789,883.93702 -276.38024,883.62718 -277.04846,884.04608 -277.36383,884.86792 -277.98553,886.48804 -276.48307,886.95282 -275.5427,885.43128 z M -262,884.80316 C -262,884.56062 -262.45,884.36218 -263,884.36218 -263.55,884.36218 -264,884.83874 -264,885.4212 -264,886.00366 -263.55,886.2021 -263,885.86218 -262.45,885.52226 -262,885.0457 -262,884.80316 z M -264.14604,883.01764 C -262.88596,881.67634 -262.19863,880.00813 -262.53978,879.1191 -263.2818,877.18543 -269.30487,876.38072 -271.42616,877.93184 -273.7116,879.603 -273.35416,882.88575 -270.75,884.14168 -267.42506,885.74524 -266.57211,885.60007 -264.14604,883.01764 z M -270.46466,881.41937 C -271.50049,879.74336 -270.10132,878.36218 -267.36766,878.36218 -265.51268,878.36218 -264.94082,878.82109 -265.18689,880.11218 -265.56205,882.08055 -269.45944,883.04584 -270.46466,881.41937 z M -212.40112,882.77675 C -211.79674,882.01583 -211.00924,881.68627 -210.65112,882.04439 -210.293,882.40251 -210,882.25338 -210,881.71299 -210,881.1726 -211.75762,879.74262 -213.90582,878.53527 -217.01105,876.79003 -218.34339,876.54224 -220.40582,877.32637 -223.78865,878.61252 -223.71682,881.43044 -220.24821,883.50923 -217.28637,885.28431 -214.16113,884.99259 -212.40112,882.77675 z M -219.88989,880.99486 C -221.62334,878.90617 -219.05566,877.11709 -216.74716,878.80511 -215.78622,879.50776 -215,880.59556 -215,881.22242 -215,882.8134 -218.51645,882.64975 -219.88989,880.99486 z M -224.74328,883.11218 C -225.28678,882.42468 -225.90438,881.3141 -226.11573,880.64423 -226.37296,879.82894 -226.9943,879.73323 -227.99513,880.35474 -229.27597,881.15014 -229.20431,881.49929 -227.49513,882.79089 -225.06177,884.62973 -223.38923,884.82501 -224.74328,883.11218 z M -274,880.80316 C -274,880.56062 -274.45,880.36218 -275,880.36218 -275.55,880.36218 -276,880.83874 -276,881.4212 -276,882.00366 -275.55,882.2021 -275,881.86218 -274.45,881.52226 -274,881.0457 -274,880.80316 z M -256,881.36218 C -256,880.81218 -256.45,880.36218 -257,880.36218 -257.55,880.36218 -258,880.81218 -258,881.36218 -258,881.91218 -257.55,882.36218 -257,882.36218 -256.45,882.36218 -256,881.91218 -256,881.36218 z M -248.9144,967.36218 C -248.9446,966.53718 -248.53316,965.18718 -248,964.36218 -246.81868,962.53421 -246.81868,964.11309 -248,966.86218 -248.56668,968.18092 -248.87815,968.35124 -248.9144,967.36218 z M -233,951.39356 C -233,950.86083 -232.325,950.68397 -231.5,951.00055 -229.57933,951.73758 -229.57933,952.36218 -231.5,952.36218 -232.325,952.36218 -233,951.9263 -233,951.39356 z M -235.73026,944.2929 C -235.90326,941.99634 -235.43189,941.7943 -234.65066,943.83015 -234.34084,944.63754 -234.42428,945.50637 -234.83609,945.76088 -235.24789,946.01539 -235.65028,945.3548 -235.73026,944.2929 z M -227.5,943.36218 C -227.83992,942.81218 -227.66803,942.36218 -227.11803,942.36218 -226.56803,942.36218 -225.83992,942.81218 -225.5,943.36218 -225.16008,943.91218 -225.33197,944.36218 -225.88197,944.36218 -226.43197,944.36218 -227.16008,943.91218 -227.5,943.36218 z M -232.55887,940.80701 C -234.38918,939.34064 -234.35727,939.31982 -232,940.44247 -228.93897,941.90028 -228.37166,942.36218 -229.6422,942.36218 -230.17875,942.36218 -231.49125,941.66235 -232.55887,940.80701 z M -236.14584,937.33427 C -234.85104,936.25552 -233.35503,935.64276 -232.82136,935.97258 -232.28769,936.30241 -233.061,937.2 -234.53983,937.96722 -238.28167,939.90851 -238.92926,939.65328 -236.14584,937.33427 z M -243.75219,929.59539 C -247.49498,928.97571 -248.32418,926.01536 -245.49852,923.36079 -243.18514,921.18748 -242.95845,921.15939 -240.53719,922.74586 -235.95953,925.74525 -238.19831,930.51494 -243.75219,929.59539 z M -260.40223,912.62661 C -260.731,912.29784 -260.99311,911.31635 -260.98469,910.44551 -260.97469,909.43752 -260.70241,909.26191 -260.23469,909.96224 -259.83061,910.56727 -258.84775,911.27218 -258.05056,911.52871 -256.84555,911.91648 -256.87123,912.09879 -258.2028,912.60976 -259.08372,912.9478 -260.07346,912.95538 -260.40223,912.62656 z M -242.72917,912.75801 C -242.39687,912.42572 -241.53437,912.39019 -240.8125,912.67911 -240.01477,912.99834 -240.25172,913.2353 -241.41667,913.28328 -242.47083,913.32668 -243.06146,913.09035 -242.72917,912.75806 z M -244.76166,881.6751 C -243.80557,881.42481 -242.00557,881.41573 -240.76166,881.6549 -239.51775,881.89409 -240.3,882.09888 -242.5,882.10998 -244.7,882.12108 -245.71775,881.92537 -244.76166,881.67508 z"
         id="path39932"
         inkscape:connector-curvature="0" />
    </g>
    <g
       id="g26573">
      <path
         sodipodi:nodetypes="ccsccccccc"
         transform="translate(0,924.36218)"
         inkscape:connector-curvature="0"
         id="path25991"
         d="M 35.515545,70.759521 33.823268,61.702832 C 33.25415,56.58077 36.528747,53.252115 36.64902,49.790236 36.760699,46.575728 32.87077,40.91135 32.87077,40.91135 L 61.207641,47.901112 86.521912,41.478088 C 86.521912,41.478088 81.419689,49.393367 81.799101,53.946311 86.276122,61.79735 83.562284,63.895701 84.443875,68.870396 L 60.074166,79.638407 z"
         style="fill:#ac9393;stroke:#000000;stroke-width:1px;stroke-linecap:butt;stroke-linejoin:miter;stroke-opacity:1" />
      <path
         sodipodi:nodetypes="scccccccccss"
         transform="translate(0,924.36218)"
         inkscape:connector-curvature="0"
         id="path25993"
         d="M 32.11512,41.289175 C 27.195837,38.135198 22.294846,31.673684 21.536022,27.310446 20.777198,22.947208 24.180796,18.241853 24.180796,18.241853 28.354328,15.206557 48.17268,12.763392 48.17268,12.763392 54.243272,12.763392 58.185042,20.130978 58.185042,20.130978 L 63.474591,20.130978 C 63.474591,20.130978 65.521681,13.711922 72.920214,12.763392 72.920214,12.763392 86.883867,12.180784 90.677987,15.974904 98.645638,20.90726 98.050334,24.088618 96.912098,26.36509 L 85.392405,44.122862 C 85.392405,44.122862 69.352545,47.997207 61.207641,47.712199 51.282675,47.364903 40.4754,46.649332 32.11512,41.289175 z"
         style="fill:#ac9393;stroke:#000000;stroke-width:1px;stroke-linecap:butt;stroke-linejoin:miter;stroke-opacity:1" />
      <path
         sodipodi:nodetypes="ccccc"
         transform="translate(0,924.36218)"
         inkscape:connector-curvature="0"
         id="path25988"
         d="M 52.895492,79.638407 65.363715,114.77613 93.700586,94.37358 81.988013,65.281059 C 80.280659,63.953117 52.895492,79.638407 52.895492,79.638407 z"
         style="fill:#ac9393;stroke:#000000;stroke-width:1px;stroke-linecap:butt;stroke-linejoin:miter;stroke-opacity:1" />
      <path
         sodipodi:nodetypes="ccccc"
         transform="translate(0,924.36218)"
         inkscape:connector-curvature="0"
         id="path25986"
         d="M 35.13772,71.704083 C 35.13772,71.704083 26.632691,93.602853 27.581221,97.207267 L 49.495068,115.34286 62.907853,79.638407 C 62.907853,79.638407 35.517132,69.427611 35.13772,71.704083 z"
         style="fill:#ac9393;stroke:#000000;stroke-width:1px;stroke-linecap:butt;stroke-linejoin:miter;stroke-opacity:1" />
      <path
         transform="translate(0,924.36218)"
         inkscape:connector-curvature="0"
         id="path25995"
         d="M 37.026845,75.671245 34.38207,85.116869 47.228118,94.751405 54.784617,80.960794 z"
         style="fill:#c8b7b7;stroke:#000000;stroke-width:1px;stroke-linecap:butt;stroke-linejoin:miter;stroke-opacity:1" />
      <path
         sodipodi:nodetypes="ccccc"
         transform="translate(0,924.36218)"
         inkscape:connector-curvature="0"
         id="path25997"
         d="M 65.372444,81.156055 69.708702,93.240105 86.521912,84.361219 81.226015,71.711225 C 81.226015,71.711225 64.61362,78.310465 65.372444,81.156055 z"
         style="fill:#c8b7b7;stroke:#000000;stroke-width:1px;stroke-linecap:butt;stroke-linejoin:miter;stroke-opacity:1" />
      <path
         transform="matrix(0.43575448,0,0,0.63230943,59.421444,963.40339)"
         d="M -24.369709,98.813026 C -24.369709,101.3692 -27.287685,103.44138 -30.88719,103.44138 -34.486695,103.44138 -37.40467,101.3692 -37.40467,98.813026 -37.40467,96.256856 -34.486695,94.184671 -30.88719,94.184671 -27.287685,94.184671 -24.369709,96.256856 -24.369709,98.813026 z"
         sodipodi:ry="4.6283555"
         sodipodi:rx="6.5174804"
         sodipodi:cy="98.813026"
         sodipodi:cx="-30.88719"
         id="path26003"
         style="fill:#c8b7b7;stroke:#000000;stroke-width:1;stroke-linecap:round;stroke-linejoin:miter;stroke-miterlimit:4;stroke-opacity:1;stroke-dasharray:none;stroke-dashoffset:0"
         sodipodi:type="arc" />
      <path
         transform="matrix(0.43575448,0,0,0.63230943,82.709231,963.13177)"
         d="M -24.369709,98.813026 C -24.369709,101.3692 -27.287685,103.44138 -30.88719,103.44138 -34.486695,103.44138 -37.40467,101.3692 -37.40467,98.813026 -37.40467,96.256856 -34.486695,94.184671 -30.88719,94.184671 -27.287685,94.184671 -24.369709,96.256856 -24.369709,98.813026 z"
         sodipodi:ry="4.6283555"
         sodipodi:rx="6.5174804"
         sodipodi:cy="98.813026"
         sodipodi:cx="-30.88719"
         id="path26003-8"
         style="fill:#c8b7b7;stroke:#000000;stroke-width:1;stroke-linecap:round;stroke-linejoin:miter;stroke-miterlimit:4;stroke-opacity:1;stroke-dasharray:none;stroke-dashoffset:0"
         sodipodi:type="arc" />
      <path
         transform="matrix(0.92796059,0,0,1.325416,88.412095,859.39381)"
         d="M -24.369709,98.813026 C -24.369709,101.3692 -27.287685,103.44138 -30.88719,103.44138 -34.486695,103.44138 -37.40467,101.3692 -37.40467,98.813026 -37.40467,96.256856 -34.486695,94.184671 -30.88719,94.184671 -27.287685,94.184671 -24.369709,96.256856 -24.369709,98.813026 z"
         sodipodi:ry="4.6283555"
         sodipodi:rx="6.5174804"
         sodipodi:cy="98.813026"
         sodipodi:cx="-30.88719"
         id="path26003-81"
         style="fill:#c8b7b7;stroke:#000000;stroke-width:1;stroke-linecap:round;stroke-linejoin:miter;stroke-miterlimit:4;stroke-opacity:1;stroke-dasharray:none;stroke-dashoffset:0"
         sodipodi:type="arc" />
      <path
         transform="matrix(0.80599932,0,0,0.8943758,58.937249,857.47992)"
         d="M -24.369709,98.813026 C -24.369709,101.3692 -27.287685,103.44138 -30.88719,103.44138 -34.486695,103.44138 -37.40467,101.3692 -37.40467,98.813026 -37.40467,96.256856 -34.486695,94.184671 -30.88719,94.184671 -27.287685,94.184671 -24.369709,96.256856 -24.369709,98.813026 z"
         sodipodi:ry="4.6283555"
         sodipodi:rx="6.5174804"
         sodipodi:cy="98.813026"
         sodipodi:cx="-30.88719"
         id="path26003-7"
         style="fill:#c8b7b7;stroke:#000000;stroke-width:1;stroke-linecap:round;stroke-linejoin:miter;stroke-miterlimit:4;stroke-opacity:1;stroke-dasharray:none;stroke-dashoffset:0"
         sodipodi:type="arc" />
      <path
         transform="matrix(0.60955712,0,0,0.8845089,63.309739,866.46536)"
         d="M -24.369709,98.813026 C -24.369709,101.3692 -27.287685,103.44138 -30.88719,103.44138 -34.486695,103.44138 -37.40467,101.3692 -37.40467,98.813026 -37.40467,96.256856 -34.486695,94.184671 -30.88719,94.184671 -27.287685,94.184671 -24.369709,96.256856 -24.369709,98.813026 z"
         sodipodi:ry="4.6283555"
         sodipodi:rx="6.5174804"
         sodipodi:cy="98.813026"
         sodipodi:cx="-30.88719"
         id="path26003-4"
         style="fill:#c8b7b7;stroke:#000000;stroke-width:1;stroke-linecap:round;stroke-linejoin:miter;stroke-miterlimit:4;stroke-opacity:1;stroke-dasharray:none;stroke-dashoffset:0"
         sodipodi:type="arc" />
      <path
         transform="matrix(0.57464706,0,0,0.83385203,77.222952,877.03866)"
         d="M -24.369709,98.813026 C -24.369709,101.3692 -27.287685,103.44138 -30.88719,103.44138 -34.486695,103.44138 -37.40467,101.3692 -37.40467,98.813026 -37.40467,96.256856 -34.486695,94.184671 -30.88719,94.184671 -27.287685,94.184671 -24.369709,96.256856 -24.369709,98.813026 z"
         sodipodi:ry="4.6283555"
         sodipodi:rx="6.5174804"
         sodipodi:cy="98.813026"
         sodipodi:cx="-30.88719"
         id="path26003-1"
         style="fill:#c8b7b7;stroke:#000000;stroke-width:1;stroke-linecap:round;stroke-linejoin:miter;stroke-miterlimit:4;stroke-opacity:1;stroke-dasharray:none;stroke-dashoffset:0"
         sodipodi:type="arc" />
      <path
         transform="matrix(0.71267944,0,0,0.90768216,96.939441,864.58557)"
         d="M -24.369709,98.813026 C -24.369709,101.3692 -27.287685,103.44138 -30.88719,103.44138 -34.486695,103.44138 -37.40467,101.3692 -37.40467,98.813026 -37.40467,96.256856 -34.486695,94.184671 -30.88719,94.184671 -27.287685,94.184671 -24.369709,96.256856 -24.369709,98.813026 z"
         sodipodi:ry="4.6283555"
         sodipodi:rx="6.5174804"
         sodipodi:cy="98.813026"
         sodipodi:cx="-30.88719"
         id="path26003-74"
         style="fill:#c8b7b7;stroke:#000000;stroke-width:1;stroke-linecap:round;stroke-linejoin:miter;stroke-miterlimit:4;stroke-opacity:1;stroke-dasharray:none;stroke-dashoffset:0"
         sodipodi:type="arc" />
      <path
         transform="matrix(0.73626824,0,0,0.61624768,107.84481,883.32243)"
         d="M -24.369709,98.813026 C -24.369709,101.3692 -27.287685,103.44138 -30.88719,103.44138 -34.486695,103.44138 -37.40467,101.3692 -37.40467,98.813026 -37.40467,96.256856 -34.486695,94.184671 -30.88719,94.184671 -27.287685,94.184671 -24.369709,96.256856 -24.369709,98.813026 z"
         sodipodi:ry="4.6283555"
         sodipodi:rx="6.5174804"
         sodipodi:cy="98.813026"
         sodipodi:cx="-30.88719"
         id="path26003-89"
         style="fill:#c8b7b7;stroke:#000000;stroke-width:1;stroke-linecap:round;stroke-linejoin:miter;stroke-miterlimit:4;stroke-opacity:1;stroke-dasharray:none;stroke-dashoffset:0"
         sodipodi:type="arc" />
    </g>
    <g
       id="leather_armor"
       inkscape:label="#g10988">
      <path
         id="path7888"
         d="M -95.838387,971.92196 -97.870939,970.99529 -110.52621,965.17882 C -114.34737,962.53001 -117.25501,962.30389 -122.18962,963.37533 -122.5896,963.46268 -122.96966,963.58718 -123.34843,963.73981 -125.6432,964.44621 -128.02669,965.60772 -130.2368,966.90517 -130.29476,966.92292 -130.35027,966.93881 -130.41129,966.95508 -130.39783,966.96771 -130.38011,966.97324 -130.36971,966.98439 -132.01584,967.95921 -133.56722,968.99521 -134.90503,969.98189 L -129.88952,972.05428 -121.65529,967.405 -122.89641,970.40642 C -125.49223,971.62396 -128.34857,973.1828 -129.13036,974.51831 L -129.12089,974.5229 -138.76543,979.6776 C -142.44092,981.15433 -152.30067,985.0772 -138.08308,989.56656 L -122.21072,983.42913 -133.36872,993.19509 -118.46709,995.63237 -109.26364,984.73613 C -109.08345,984.64314 -107.50107,983.82383 -106.15302,982.77489 -106.02473,982.67508 -105.85017,982.52437 -105.67926,982.37493 -105.48843,982.66906 -105.22502,982.94946 -104.86908,983.14024 -103.20563,984.0256 -97.96922,984.56713 -94.35658,984.87812 -94.374446,982.34847 -92.771491,981.44747 -97.175191,980.23986 -97.087064,980.252 -97.002693,980.26232 -96.916069,980.27984 -94.370805,975.38925 -93.425327,975.64258 -95.838629,971.92184 z"
         inkscape:connector-curvature="0"
         style="fill:#803300;stroke:#000000;stroke-width:0.27986034999999998;stroke-linecap:round;stroke-linejoin:round" />
      <path
         id="path7878"
         d="M -105.40535,982.55652 C -103.61713,984.63906 -98.099868,984.23798 -94.250382,984.9479 L -92.927114,981.14289 -97.06936,980.28196 -95.998676,978.64944 -105.37625,975.97022 -105.40548,982.55646 z"
         inkscape:connector-curvature="0"
         style="fill:#803300;stroke:#000000;stroke-width:0.27501699000000002;stroke-linecap:round;stroke-linejoin:round" />
      <g
         id="g7868"
         transform="matrix(0.30557443,0.14804423,-0.24377551,0.18747045,-73.188789,933.50398)"
         style="stroke-linecap:round;stroke-linejoin:round;fill:#d45500">
        <path
           id="path7870"
           d="M 74.427,168.36 C 76.179,166.17 81.436,164.86 81.436,164.86 L 84.064,167.49 C 79.919,167.58 74.236,171.8 70.923,175.37 64.72,172.52 58.358,170.2 53.839,166.17 53.839,166.17 54.277,162.67 57.343,160.92 60.409,159.17 62.819,159.17 62.819,159.17 50.63,163.68 69.665,173.47 74.427,168.36 z"
           inkscape:connector-curvature="0"
           style="fill:#d45500;fill-rule:evenodd;stroke:#000000;stroke-width:0.50000000000000000" />
        <path
           id="path7872"
           d="M 87.559,175.1 A 19.836,18.662 0 1 1 47.887,175.1 19.836,18.662 0 1 1 87.559,175.1 z"
           transform="translate(-4.4601,-5.1643)"
           inkscape:connector-curvature="0"
           style="fill:#d45500;stroke:#000000;stroke-width:0.89999998000000003" />
        <path
           id="path7874"
           d="M 47.887,168.41 C 50.177,158.58 56.357,153.48 69.249,155.5"
           inkscape:connector-curvature="0"
           style="opacity:0.59999999999999998;fill:#d45500;stroke:#a6a6a6;stroke-width:4.09999990000000025;filter:url(#filter7859)" />
      </g>
      <path
         id="path7828"
         d="M -109.79993,965.36263 -95.164457,972.03762 -99.876551,977.20156 -107.9219,985.05615 C -113.26108,982.93391 -123.24061,979.15633 -129.88673,973.66906 -129.12592,972.36922 -125.98586,971.14951 -123.08727,970.19478 -120.92651,969.48457 -123.63411,966.98717 -122.83421,966.65049 -123.02106,965.53935 -113.21612,964.54483 -111.67331,964.18611 -111.06728,964.51333 -110.44615,964.90287 -109.79984,965.36267 z"
         inkscape:connector-curvature="0"
         style="fill:#803300;stroke:#000000;stroke-width:0.27986034999999998;stroke-linecap:round;stroke-linejoin:round" />
      <path
         id="path7832"
         d="M 216.23,616.63 220.17,615.1 C 229.66,622.27 220.84,631.14 225.42,642.13 L 209.16,642.86 216.23,616.63 z"
         transform="matrix(0.40716551,0.26706834,-0.43613185,0.2470346,64.101344,758.34661)"
         inkscape:connector-curvature="0"
         style="opacity:0.42105000999999997;fill:#803300;filter:url(#filter5562)" />
      <path
         id="path7876"
         d="M -134.71039,969.93563 -130.04763,972.19464 -122.17677,967.76044 -125.22218,964.34767 C -130.03281,966.3959 -132.40547,968.17074 -134.71039,969.93563 z"
         inkscape:connector-curvature="0"
         style="opacity:0.85659998999999998;fill:#803300;stroke:#000000;stroke-width:0.27501699000000002;stroke-linecap:round;stroke-linejoin:round" />
      <path
         id="path7882"
         d="M -97.521363,980.05076 C -98.764346,979.96803 -100.76269,980.71721 -102.08819,981.28205"
         inkscape:connector-curvature="0"
         style="fill:#803300;stroke:#000000;stroke-width:0.27986034999999998px" />
      <path
         id="path7886"
         d="M -116.58417,1000.2146 C -118.5554,1002.8256 -124.83934,998.77581 -128.26561,996.08608 -135.27865,994.68686 -134.75396,994.26574 -132.96404,992.89001 -130.9666,991.35507 -127.57249,990.72291 -121.99789,993.42368 -116.4233,996.12446 -114.87934,998.05199 -116.58417,1000.2146 z"
         inkscape:connector-curvature="0"
         style="fill:#d45500;stroke:#000000;stroke-width:0.22481722000000001" />
      <path
         id="path7892"
         d="M -138.66945,989.84168 C -140.25886,991.06398 -139.94548,991.56417 -144.82825,989.19857 -149.71103,986.83297 -151.78479,985.77022 -150.19781,984.54979 -148.60839,983.32748 -145.77977,982.88583 -140.897,985.25143 -136.01422,987.61702 -137.08003,988.61937 -138.66945,989.84168 z"
         inkscape:connector-curvature="0"
         style="fill:#d45500;stroke:#000000;stroke-width:0.18768075000000001" />
      <path
         id="path7920"
         d="M -100.07075,977.1747 -105.6491,982.34676"
         inkscape:connector-curvature="0"
         style="fill:#803300;stroke:#000000;stroke-width:0.27990618000000000;stroke-linecap:round;stroke-linejoin:round" />
      <path
         id="path7924"
         d="M -118.81824,980.85189 A 0.47923035,0.78423258 89.722592 1 1 -117.31898,980.57739"
         inkscape:connector-curvature="0"
         style="fill:#803300;stroke:#000000;stroke-width:0.29457646999999998;stroke-linejoin:round" />
      <path
         id="path7926"
         d="M -118.21195,980.57434 A 0.47923863,0.78422338 89.723246 0 1 -118.15633,981.35305"
         inkscape:connector-curvature="0"
         style="fill:#803300;stroke:#000000;stroke-width:0.29457727000000000;stroke-linejoin:round" />
      <path
         id="path7928"
         d="M -119.06309,983.30084 A 1.8783525,3.1619952 68.962522 0 1 -122.79085,982.0944"
         inkscape:connector-curvature="0"
         style="fill:#803300;stroke:#000000;stroke-width:0.27501821999999998;stroke-linejoin:round" />
      <path
         id="path7930"
         d="M -118.15135,967.29052 C -121.99188,970.1785 -117.68471,973.53642 -114.24886,975.73271 -114.24886,975.73271 -119.33838,971.0057 -119.23625,970.2668 -119.13625,969.52992 -117.99013,967.17918 -118.15135,967.29052 z"
         inkscape:connector-curvature="0"
         style="fill-rule:evenodd;fill:#803300" />
      <path
         id="path7932"
         d="M -107.89422,968.67244 C -106.73129,970.56204 -106.41027,971.4754 -107.9754,973.18311 L -106.06028,971.69385 -102.52624,970.97976 -105.92284,971.32041 -107.89422,968.67244 z"
         inkscape:connector-curvature="0"
         style="fill-rule:evenodd;fill:#803300" />
      <path
         id="path7934"
         d="M -98.287397,975.7255 C -98.287397,975.7255 -101.24334,978.88008 -102.93286,979.1555 -104.62207,979.43107 -106.55221,978.98182 -106.55221,978.98182 L -102.2904,978.71199 -98.287397,975.7255 z"
         inkscape:connector-curvature="0"
         style="fill-rule:evenodd;fill:#803300" />
      <path
         id="path7936"
         d="M -110.18675,975.15528 C -110.18675,975.15528 -111.84763,976.63632 -112.28024,976.6009 -112.71041,976.56362 -112.89786,976.41474 -112.89786,976.41474 -112.25694,976.37079 -111.21865,975.75847 -110.18675,975.15528 z"
         inkscape:connector-curvature="0"
         style="fill-rule:evenodd;fill:#803300" />
      <g
         id="g7863"
         transform="matrix(0.30557443,0.14804423,-0.24377551,0.18747045,-96.427874,923.67982)"
         style="stroke-linecap:round;stroke-linejoin:round;fill:#803300">
        <path
           id="path7840"
           d="M 74.427,168.36 C 76.179,166.17 81.436,164.86 81.436,164.86 L 84.064,167.49 C 79.919,167.58 74.236,171.8 70.923,175.37 64.72,172.52 58.358,170.2 53.839,166.17 53.839,166.17 54.277,162.67 57.343,160.92 60.409,159.17 62.819,159.17 62.819,159.17 50.63,163.68 69.665,173.47 74.427,168.36 z"
           inkscape:connector-curvature="0"
           style="fill:#803300;fill-rule:evenodd;stroke:#000000;stroke-width:0.50000000000000000" />
        <path
           id="path7855"
           d="M 87.559,175.1 A 19.836,18.662 0 1 1 47.887,175.1 19.836,18.662 0 1 1 87.559,175.1 z"
           transform="translate(-4.4601,-5.1643)"
           inkscape:connector-curvature="0"
           style="fill:#d45500;stroke:#000000;stroke-width:0.89999998000000003" />
        <path
           id="path7857"
           d="M 47.887,168.41 C 50.177,158.58 56.357,153.48 69.249,155.5"
           inkscape:connector-curvature="0"
           style="opacity:0.59999999999999998;fill:#803300;stroke:#a6a6a6;stroke-width:4.09999990000000025;filter:url(#filter7859)" />
      </g>
      <path
         id="path7844"
         d="M -106.95807,983.94634 C -106.95807,983.94634 -106.28724,984.94055 -108.75062,984.15046 -111.21173,983.3584 -121.03719,979.00154 -122.93786,977.94625 -124.83852,976.89097 -127.94377,975.25209 -128.61447,974.25794 -129.28548,973.26364 -128.99422,972.20079 -128.99422,972.20079 L -130.94269,974.20254 C -130.94269,974.20254 -129.76289,975.30888 -127.19301,976.68838 -124.62101,978.06586 -116.69685,982.0394 -113.1091,983.64313 -109.52409,985.2486 -107.73005,985.71441 -107.73005,985.71441 L -106.95807,983.94634 z"
         inkscape:connector-curvature="0"
         style="fill:#803300;fill-rule:evenodd;stroke:#000000;stroke-width:0.15278722000000000;stroke-linecap:round;stroke-linejoin:round" />
      <path
         id="path7838"
         d="M -100.53346,970.63736 -101.30693,971.73549 C -101.30693,971.73549 -101.8438,970.80619 -104.19529,971.94347 -106.54435,973.07887 -106.47593,973.78123 -107.54697,973.26234 -111.23684,972.26611 -107.50856,972.41922 -108.87886,970.34359 -110.45924,968.37091 -111.71792,968.16446 -111.31789,967.68906 -110.91787,967.21366 -110.19606,966.49079 -110.19606,966.49079 -110.19606,966.49079 -108.56157,968.08633 -107.32892,969.48718 -106.09596,970.88818 -107.08302,971.47949 -105.47991,970.91774 -103.87681,970.35599 -100.31894,970.47238 -100.53346,970.63736 z"
         inkscape:connector-curvature="0"
         style="fill:#803300;fill-rule:evenodd;stroke:#000000;stroke-width:0.15278722000000000;stroke-linecap:round;stroke-linejoin:round" />
      <path
         id="path8049"
         d="M -137.52763,979.14972 -128.90581,979.24739 -128.50441,985.66641"
         inkscape:connector-curvature="0"
         style="fill:#803300;stroke:#000000;stroke-width:0.27501699000000002;stroke-linecap:round;stroke-linejoin:round" />
      <path
         id="path8051"
         d="M -125.87204,986.87145 C -120.41842,987.89102 -116.59376,987.73942 -114.35006,986.44296 -113.218,987.90508 -113.77092,989.28425 -114.35315,990.66145"
         inkscape:connector-curvature="0"
         style="fill:#803300;stroke:#000000;stroke-width:0.27501699000000002;stroke-linecap:round;stroke-linejoin:round" />
      <path
         id="path8169"
         d="M -138.23016,979.62219 -129.60834,979.71986 -129.20694,986.13888"
         inkscape:connector-curvature="0"
         style="fill:#803300;stroke:#000000;stroke-width:0.27501699000000002;stroke-linecap:round;stroke-linejoin:round" />
      <path
         id="path8171"
         d="M -126.48712,987.54824 C -121.03594,988.56968 -116.7545,988.47437 -114.51081,987.17791 -113.37875,988.64003 -114.38603,989.96103 -114.96816,991.33827"
         inkscape:connector-curvature="0"
         style="fill:#803300;stroke:#000000;stroke-width:0.27501699000000002;stroke-linecap:round;stroke-linejoin:round" />
    </g>
  </g>
</svg>
