<?xml version="1.0" encoding="UTF-8" standalone="no"?>
<!-- Created with Inkscape (http://www.inkscape.org/) -->

<svg
   xmlns:dc="http://purl.org/dc/elements/1.1/"
   xmlns:cc="http://creativecommons.org/ns#"
   xmlns:rdf="http://www.w3.org/1999/02/22-rdf-syntax-ns#"
   xmlns:svg="http://www.w3.org/2000/svg"
   xmlns="http://www.w3.org/2000/svg"
   xmlns:sodipodi="http://sodipodi.sourceforge.net/DTD/sodipodi-0.dtd"
   xmlns:inkscape="http://www.inkscape.org/namespaces/inkscape"
   width="128"
   height="64"
   id="svg13534"
   version="1.1"
   inkscape:version="0.48.4 r9939"
   sodipodi:docname="spell.svg">
  <defs
     id="defs13536" />
  <sodipodi:namedview
     id="base"
     pagecolor="#ffffff"
     bordercolor="#666666"
     borderopacity="1.0"
     inkscape:pageopacity="0.0"
     inkscape:pageshadow="2"
     inkscape:zoom="2.0730769"
     inkscape:cx="40.584047"
     inkscape:cy="-32"
     inkscape:document-units="px"
     inkscape:current-layer="layer1"
     showgrid="true"
     inkscape:window-width="1276"
     inkscape:window-height="738"
     inkscape:window-x="0"
     inkscape:window-y="0"
     inkscape:window-maximized="0"
     inkscape:snap-to-guides="false"
     inkscape:snap-global="false">
    <inkscape:grid
       type="axonomgrid"
       id="grid5125"
       empspacing="4"
       visible="true"
       enabled="true"
       snapvisiblegridlinesonly="true"
       originy="0px"
       originx="64px"
       spacingy="16px" />
  </sodipodi:namedview>
  <metadata
     id="metadata13539">
    <rdf:RDF>
      <cc:Work
         rdf:about="">
        <dc:format>image/svg+xml</dc:format>
        <dc:type
           rdf:resource="http://purl.org/dc/dcmitype/StillImage" />
        <dc:title />
      </cc:Work>
    </rdf:RDF>
  </metadata>
  <g
     inkscape:label="guide"
     inkscape:groupmode="layer"
     id="thingy"
     transform="translate(0,-988.36218)"
     sodipodi:insensitive="true"
     style="display:inline">
    <g
       id="g4141"
       transform="translate(166.69368,71.109922)">
      <path
         inkscape:connector-curvature="0"
         id="path13265-8"
         d="M -394.5691,888.74256 -330.555,856.74256 -330.555,920.74256 -394.5691,952.74256 z"
         style="fill:#001dff;fill-opacity:0.36563876;stroke:#000000;stroke-width:1px;stroke-linecap:butt;stroke-linejoin:miter;stroke-opacity:0.46255505" />
      <path
         inkscape:connector-curvature="0"
         id="path13267-4"
         d="M -213.82501,890.16806 -277.83912,858.16806 -277.83912,922.16806 -213.82501,954.16806 z"
         style="fill:#ffff00;fill-opacity:0.4801762;stroke:#000000;stroke-width:1px;stroke-linecap:butt;stroke-linejoin:miter;stroke-opacity:0.41850221" />
      <path
         inkscape:connector-curvature="0"
         id="path12475"
         d="M -368.09523,980.36216 -304.08112,948.36216 -240.06701,980.36216 -304.08112,1012.3622 z"
         style="fill:#d40000;fill-opacity:0.52863434;stroke:#000000;stroke-width:1px;stroke-linecap:butt;stroke-linejoin:miter;stroke-opacity:0.43171806" />
      <text
         sodipodi:linespacing="125%"
         id="text13245"
         y="943.62592"
         x="-311.56921"
         style="font-size:10px;font-style:normal;font-variant:normal;font-weight:normal;font-stretch:normal;text-align:start;line-height:125%;letter-spacing:0px;word-spacing:0px;writing-mode:lr-tb;text-anchor:start;fill:#000000;fill-opacity:1;stroke:none;font-family:Trebuchet MS;-inkscape-font-specification:Trebuchet MS"
         xml:space="preserve"><tspan
           y="943.62592"
           x="-311.56921"
           id="tspan13247"
           sodipodi:role="line">0,0</tspan></text>
      <text
         sodipodi:linespacing="125%"
         id="text13249"
         y="981.79071"
         x="-394.81281"
         style="font-size:10px;font-style:normal;font-variant:normal;font-weight:normal;font-stretch:normal;text-align:start;line-height:125%;letter-spacing:0px;word-spacing:0px;writing-mode:lr-tb;text-anchor:start;fill:#000000;fill-opacity:1;stroke:none;font-family:Trebuchet MS;-inkscape-font-specification:Trebuchet MS"
         xml:space="preserve"><tspan
           y="981.79071"
           x="-394.81281"
           id="tspan13251"
           sodipodi:role="line">-1,.5</tspan></text>
      <text
         sodipodi:linespacing="125%"
         id="text13253"
         y="1021.8914"
         x="-310.46295"
         style="font-size:10px;font-style:normal;font-variant:normal;font-weight:normal;font-stretch:normal;text-align:start;line-height:125%;letter-spacing:0px;word-spacing:0px;writing-mode:lr-tb;text-anchor:start;fill:#000000;fill-opacity:1;stroke:none;font-family:Trebuchet MS;-inkscape-font-specification:Trebuchet MS"
         xml:space="preserve"><tspan
           y="1021.8914"
           x="-310.46295"
           id="tspan13255"
           sodipodi:role="line">0,1</tspan></text>
      <text
         sodipodi:linespacing="125%"
         id="text13257"
         y="982.62042"
         x="-236.6223"
         style="font-size:10px;font-style:normal;font-variant:normal;font-weight:normal;font-stretch:normal;text-align:start;line-height:125%;letter-spacing:0px;word-spacing:0px;writing-mode:lr-tb;text-anchor:start;fill:#000000;fill-opacity:1;stroke:none;font-family:Trebuchet MS;-inkscape-font-specification:Trebuchet MS"
         xml:space="preserve"><tspan
           y="982.62042"
           x="-236.6223"
           id="tspan13259"
           sodipodi:role="line">1,.5</tspan></text>
      <text
         sodipodi:linespacing="125%"
         id="text13261"
         y="922.0545"
         x="-236.62231"
         style="font-size:10px;font-style:normal;font-variant:normal;font-weight:normal;font-stretch:normal;text-align:start;line-height:125%;letter-spacing:0px;word-spacing:0px;writing-mode:lr-tb;text-anchor:start;fill:#000000;fill-opacity:1;stroke:none;font-family:Trebuchet MS;-inkscape-font-specification:Trebuchet MS"
         xml:space="preserve"><tspan
           y="922.0545"
           x="-236.62231"
           id="tspan13263"
           sodipodi:role="line">1,-.5</tspan></text>
      <path
         inkscape:connector-curvature="0"
         id="path13265"
         d="M -304.08112,948.36216 -240.06701,916.36216 -240.06701,980.36216 -304.08112,1012.3622 z"
         style="fill:#001dff;fill-opacity:0.36563876;stroke:#000000;stroke-width:1px;stroke-linecap:butt;stroke-linejoin:miter;stroke-opacity:0.46255505" />
      <path
         inkscape:connector-curvature="0"
         id="path13267"
         d="M -304.08112,948.36216 -368.09523,916.36216 -368.09523,980.36216 -304.08112,1012.3622 z"
         style="fill:#ffff00;fill-opacity:0.4801762;stroke:#000000;stroke-width:1px;stroke-linecap:butt;stroke-linejoin:miter;stroke-opacity:0.41850221" />
      <text
         sodipodi:linespacing="125%"
         id="text13269"
         y="919.28888"
         x="-395.08936"
         style="font-size:10px;font-style:normal;font-variant:normal;font-weight:normal;font-stretch:normal;text-align:start;line-height:125%;letter-spacing:0px;word-spacing:0px;writing-mode:lr-tb;text-anchor:start;fill:#000000;fill-opacity:1;stroke:none;font-family:Trebuchet MS;-inkscape-font-specification:Trebuchet MS"
         xml:space="preserve"><tspan
           y="919.28888"
           x="-395.08936"
           id="tspan13271"
           sodipodi:role="line">-1,-.5</tspan></text>
      <text
         sodipodi:linespacing="125%"
         id="text13273"
         y="877.25226"
         x="-310.73953"
         style="font-size:10px;font-style:normal;font-variant:normal;font-weight:normal;font-stretch:normal;text-align:start;line-height:125%;letter-spacing:0px;word-spacing:0px;writing-mode:lr-tb;text-anchor:start;fill:#000000;fill-opacity:1;stroke:none;font-family:Trebuchet MS;-inkscape-font-specification:Trebuchet MS"
         xml:space="preserve"><tspan
           y="877.25226"
           x="-310.73953"
           id="tspan13275"
           sodipodi:role="line">0,-1</tspan></text>
      <text
         sodipodi:linespacing="125%"
         id="text13277"
         y="945.56183"
         x="-272.85126"
         style="font-size:8px;font-style:normal;font-variant:normal;font-weight:normal;font-stretch:normal;text-align:start;line-height:125%;letter-spacing:0px;word-spacing:0px;writing-mode:lr-tb;text-anchor:start;fill:#000000;fill-opacity:1;stroke:none;font-family:Trebuchet MS;-inkscape-font-specification:Trebuchet MS"
         xml:space="preserve"><tspan
           y="945.56183"
           x="-272.85126"
           id="tspan13279"
           sodipodi:role="line">west</tspan><tspan
           id="tspan13281"
           y="955.56183"
           x="-272.85126"
           sodipodi:role="line">wall</tspan></text>
      <text
         sodipodi:linespacing="125%"
         id="text13283"
         y="945.28522"
         x="-361.90253"
         style="font-size:8px;font-style:normal;font-variant:normal;font-weight:normal;font-stretch:normal;text-align:start;line-height:125%;letter-spacing:0px;word-spacing:0px;writing-mode:lr-tb;text-anchor:start;fill:#000000;fill-opacity:1;stroke:none;font-family:Trebuchet MS;-inkscape-font-specification:Trebuchet MS"
         xml:space="preserve"><tspan
           y="945.28522"
           x="-361.90253"
           id="tspan13285"
           sodipodi:role="line">north</tspan><tspan
           id="tspan13287"
           y="955.28522"
           x="-361.90253"
           sodipodi:role="line">wall</tspan></text>
      <text
         sodipodi:linespacing="125%"
         id="text13325"
         y="845.71332"
         x="-376.93439"
         style="font-size:13px;font-style:normal;font-variant:normal;font-weight:normal;font-stretch:normal;text-align:start;line-height:125%;letter-spacing:0px;word-spacing:0px;writing-mode:lr-tb;text-anchor:start;fill:#000000;fill-opacity:1;stroke:none;font-family:Trebuchet MS;-inkscape-font-specification:Trebuchet MS"
         xml:space="preserve"><tspan
           y="845.71332"
           x="-376.93439"
           id="tspan13327"
           sodipodi:role="line">Unit Cords for Polygons</tspan></text>
    </g>
    <path
       style="fill:#cccccc;stroke:none"
       d="M 0,1020.3622 63.999998,988.36218 128,1020.3622 63.999998,1052.3622 0,1020.3622"
       id="path4260"
       inkscape:connector-curvature="0" />
  </g>
  <g
     inkscape:groupmode="layer"
     id="layer1"
     inkscape:label="content">
    <g
       id="fire"
       inkscape:label="#g8470">
      <path
         sodipodi:nodetypes="cccccccccccccc"
         inkscape:connector-curvature="0"
         id="path7479"
         d="M 78.135299,50.034641 54.270446,50.741748 C 32.036496,50.488317 25.545513,27.349589 25.367455,2.5700984 31.201086,4.249477 32.350135,21.750369 38.890873,20.866486 39.189409,9.0187978 37.191444,-1.8610415 33.941126,-13.074639 55.86613,-8.619656 48.530041,-5.2665364 50.911688,13.795418 53.239158,2.0309711 55.12229,-7.8314765 53.033009,-19.4386 67.392734,-10.109489 67.483152,-7.6946716 63.63961,8.1385642 75.799245,2.1815778 67.62706,-13.720557 74.599765,-19.4386 86.020265,-0.47093205 84.793239,-4.4822523 78.66563,14.502525 86.916039,8.6695855 94.386625,2.1867938 97.050406,-8.3016685 97.488229,8.6714833 98.981131,7.0924667 89.802561,19.629049 95.509598,17.208972 98.821093,24.127327 106.41958,6.7243506 115.34137,33.146977 96.761846,49.829205 78.135299,50.034641 z"
         style="fill:#ff6600;stroke:none;opacity:0.89743589999999984;" />
      <path
         sodipodi:nodetypes="cccc"
         inkscape:connector-curvature="0"
         id="path7481"
         d="M 27.046835,6.3707971 C 27.046835,6.3707971 35.355339,24.667185 37.918601,24.93235 36.681164,27.495612 30.538175,27.097864 30.538175,27.097864 28.505243,27.097864 27.046835,6.3707971 27.046835,6.3707971 z"
         style="fill:#ff2a2a;stroke:none;opacity:0.89743589999999984" />
      <path
         sodipodi:nodetypes="cccc"
         inkscape:connector-curvature="0"
         id="path7483"
         d="M 38.625708,-9.0087753 C 50.164281,-2.8456974 46.614185,-1.9079812 47.552931,11.497321 47.641319,17.684505 41.798255,19.865801 41.798255,19.865801 z"
         style="fill:#ff2a2a;stroke:none;opacity:0.89743589999999984" />
      <path
         sodipodi:nodetypes="cccc"
         inkscape:connector-curvature="0"
         id="path7485"
         d="M 57.375,-13.75 C 64.657273,-4.1886419 62.354098,-2.6841662 60.4375,8.9687499 60.4375,8.9687499 57.709709,12.858757 55.5,9.4999999 z"
         style="fill:#ff2a2a;stroke:none;opacity:0.89743589999999984" />
      <path
         sodipodi:nodetypes="cccc"
         inkscape:connector-curvature="0"
         id="path7487"
         d="M 75.375,-12.53125 C 81.345018,-0.53355136 81.165147,-2.5739421 75.6875,8.8437499 75.6875,8.8437499 72.195464,12.232837 70.78125,8.3437499 73.963231,4.8966043 75.375,-12.53125 75.375,-12.53125 z"
         style="fill:#ff2a2a;stroke:none;opacity:0.89743589999999984" />
      <path
         sodipodi:nodetypes="cccc"
         inkscape:connector-curvature="0"
         id="path7489"
         d="M 95.09375,1.7812498 C 95.09375,1.7812498 96.768213,9.4827065 86.25,20.53125 86.25,20.53125 79.963388,20.460629 80.228553,16.836706 84.206029,16.1296 95.09375,1.7812498 95.09375,1.7812498 z"
         style="fill:#ff2a2a;stroke:none;opacity:0.89743589999999984" />
      <path
         sodipodi:nodetypes="cccc"
         inkscape:connector-curvature="0"
         id="path7491"
         d="M 107.02849,15.24816 C 107.02849,15.24816 105.69178,29.84375 102.15625,29.84375 102.15625,29.84375 91.915291,28.271446 91.296573,24.912689 98.632806,24.205583 107.02849,15.24816 107.02849,15.24816 z"
         style="fill:#ff2a2a;stroke:none;opacity:0.89743589999999984" />
      <path
         sodipodi:nodetypes="cccc"
         inkscape:connector-curvature="0"
         id="path8429"
         d="M 42.382059,23.405707 C 46.569559,24.530707 58.848812,15.564363 58.848812,15.564363 58.848812,15.564363 57.9375,33.782077 53.125,33.157077 53.125,33.157077 39.507059,26.968207 42.382059,23.405707 z"
         style="fill:#ff2a2a;stroke:none" />
      <path
         sodipodi:nodetypes="cccc"
         inkscape:connector-curvature="0"
         id="path8429-4"
         d="M 81.916918,40.315585 C 81.916918,40.315585 81.328293,23.086359 85.640793,22.461359 85.640793,22.461359 90.743924,34.852829 96.181424,37.665329 93.556424,39.977829 86.104418,46.690585 81.916918,40.315585 z"
         style="fill:#ff2a2a;stroke:none" />
      <path
         sodipodi:nodetypes="cccc"
         inkscape:connector-curvature="0"
         id="path8429-8"
         d="M 40.718336,31.232501 C 40.718336,31.232501 59.080064,36.091204 54.392564,46.341204 54.392564,46.341204 43.258898,39.756688 37.508898,41.131688 37.508898,41.131688 36.155836,29.107501 40.718336,31.232501 z"
         style="fill:#ff2a2a;stroke:none" />
      <path
         sodipodi:nodetypes="cccc"
         inkscape:connector-curvature="0"
         id="path8429-7"
         d="M 61.238818,23.91445 C 61.238818,23.91445 70.09288,11.313399 75.15538,12.125899 75.15538,12.125899 72.054267,24.722145 74.116767,30.597145 68.304267,32.534645 61.238818,23.91445 61.238818,23.91445 z"
         style="fill:#ff2a2a;stroke:none" />
      <path
         sodipodi:nodetypes="cccc"
         inkscape:connector-curvature="0"
         id="path8429-89"
         d="M 58.79962,36.567291 C 69.36212,32.379791 78.509508,41.574939 78.509508,41.574939 78.509508,41.574939 63.251974,44.472744 60.376974,48.910244 56.689474,49.222744 58.79962,36.567291 58.79962,36.567291 z"
         style="fill:#ff2a2a;stroke:none" />
      <path
         style="fill:none;stroke:none;stroke-width:1px;stroke-linecap:butt;stroke-linejoin:miter;stroke-opacity:1"
         d="M -0.01410803,32 64,0 128.01411,32 64,64 z"
         id="path8511"
         inkscape:connector-curvature="0" />
    </g>
    <g
       id="cold"
       inkscape:label="#g3882"
       transform="translate(64.441588,-93.262198)">
      <path
         inkscape:connector-curvature="0"
         id="path3037"
         d="M 128.01411,96 192.02822,128 128.01411,160 64,128 z"
         style="fill:none;stroke:none" />
      <path
         sodipodi:open="true"
         sodipodi:end="6.259079"
         sodipodi:start="0"
         d="M 107.27728,119.92844 C 107.27728,120.59236 106.61092,121.13058 105.78891,121.13058 104.9669,121.13058 104.30054,120.59236 104.30054,119.92844 104.30054,119.26451 104.9669,118.72629 105.78891,118.72629 106.59694,118.72629 107.25737,119.24701 107.27685,119.89946"
         sodipodi:ry="1.2021466"
         sodipodi:rx="1.4883721"
         sodipodi:cy="119.92844"
         sodipodi:cx="105.78891"
         id="path3810"
         style="fill:#0000ff;fill-opacity:1;fill-rule:nonzero;stroke:none"
         sodipodi:type="arc"
         transform="matrix(1.7245662,0,0,1.7245662,-91.763996,-96.064691)" />
      <path
         sodipodi:open="true"
         sodipodi:end="6.259079"
         sodipodi:start="0"
         d="M 114.37567,112.60107 C 114.37567,113.32823 113.9656,113.9177 113.45975,113.9177 112.9539,113.9177 112.54383,113.32823 112.54383,112.60107 112.54383,111.87391 112.9539,111.28443 113.45975,111.28443 113.957,111.28443 114.36342,111.85474 114.3754,112.56933"
         sodipodi:ry="1.3166368"
         sodipodi:rx="0.91592127"
         sodipodi:cy="112.60107"
         sodipodi:cx="113.45975"
         id="path3812"
         style="fill:#0000ff;fill-opacity:1;fill-rule:nonzero;stroke:none"
         sodipodi:type="arc"
         transform="matrix(1.7245662,0,0,1.7245662,-91.763996,-96.064691)" />
      <path
         sodipodi:open="true"
         sodipodi:end="6.259079"
         sodipodi:start="0"
         d="M 123.76386,115.2916 C 123.76386,115.98715 123.14875,116.55099 122.38998,116.55099 121.6312,116.55099 121.01609,115.98715 121.01609,115.2916 121.01609,114.59606 121.6312,114.03221 122.38998,114.03221 123.13585,114.03221 123.74548,114.57773 123.76346,115.26125"
         sodipodi:ry="1.2593918"
         sodipodi:rx="1.3738819"
         sodipodi:cy="115.2916"
         sodipodi:cx="122.38998"
         id="path3814"
         style="fill:#0000ff;fill-opacity:1;fill-rule:nonzero;stroke:none"
         sodipodi:type="arc"
         transform="matrix(1.7245662,0,0,1.7245662,-91.763996,-96.064691)" />
      <path
         sodipodi:open="true"
         sodipodi:end="6.259079"
         sodipodi:start="0"
         d="M 132.00715,118.95528 C 132.00715,119.90374 131.31515,120.67263 130.46153,120.67263 129.60791,120.67263 128.91592,119.90374 128.91592,118.95528 128.91592,118.00681 129.60791,117.23792 130.46153,117.23792 131.30064,117.23792 131.98647,117.98181 132.0067,118.91388"
         sodipodi:ry="1.7173524"
         sodipodi:rx="1.5456172"
         sodipodi:cy="118.95528"
         sodipodi:cx="130.46153"
         id="path3816"
         style="fill:#0000ff;fill-opacity:1;fill-rule:nonzero;stroke:none"
         sodipodi:type="arc"
         transform="matrix(1.7245662,0,0,1.7245662,-91.763996,-96.064691)" />
      <path
         sodipodi:open="true"
         sodipodi:end="6.259079"
         sodipodi:start="0"
         d="M 133.839,114.43291 C 133.839,115.2233 133.27515,115.86403 132.57961,115.86403 131.88406,115.86403 131.32021,115.2233 131.32021,114.43291 131.32021,113.64252 131.88406,113.00178 132.57961,113.00178 133.26332,113.00178 133.82215,113.62169 133.83863,114.39841"
         sodipodi:ry="1.4311271"
         sodipodi:rx="1.2593918"
         sodipodi:cy="114.43291"
         sodipodi:cx="132.57961"
         id="path3818"
         style="fill:#0000ff;fill-opacity:1;fill-rule:nonzero;stroke:none"
         sodipodi:type="arc"
         transform="matrix(1.7245662,0,0,1.7245662,-91.763996,-96.064691)" />
      <path
         sodipodi:open="true"
         sodipodi:end="6.259079"
         sodipodi:start="0"
         d="M 127.42754,108.30769 C 127.42754,109.1297 126.63303,109.79607 125.65295,109.79607 124.67286,109.79607 123.87835,109.1297 123.87835,108.30769 123.87835,107.48569 124.67286,106.81932 125.65295,106.81932 126.61636,106.81932 127.40381,107.46402 127.42703,108.27182"
         sodipodi:ry="1.4883721"
         sodipodi:rx="1.7745975"
         sodipodi:cy="108.30769"
         sodipodi:cx="125.65295"
         id="path3820"
         style="fill:#0000ff;fill-opacity:1;fill-rule:nonzero;stroke:none"
         sodipodi:type="arc"
         transform="matrix(1.7245662,0,0,1.7245662,-91.763996,-96.064691)" />
      <path
         sodipodi:open="true"
         sodipodi:end="6.259079"
         sodipodi:start="0"
         d="M 121.0161,126.2254 C 121.0161,126.95256 120.19596,127.54204 119.18426,127.54204 118.17256,127.54204 117.35241,126.95256 117.35241,126.2254 117.35241,125.49824 118.17256,124.90877 119.18426,124.90877 120.17875,124.90877 120.9916,125.47908 121.01557,126.19367"
         sodipodi:ry="1.3166368"
         sodipodi:rx="1.8318425"
         sodipodi:cy="126.2254"
         sodipodi:cx="119.18426"
         id="path3822"
         style="fill:#0000ff;fill-opacity:1;fill-rule:nonzero;stroke:none"
         sodipodi:type="arc"
         transform="matrix(1.7245662,0,0,1.7245662,-91.763996,-96.064691)" />
      <path
         sodipodi:open="true"
         sodipodi:end="6.259079"
         sodipodi:start="0"
         d="M 118.15385,120.27191 C 118.15385,120.74615 117.35933,121.13059 116.37925,121.13059 115.39917,121.13059 114.60465,120.74615 114.60465,120.27191 114.60465,119.79768 115.39917,119.41324 116.37925,119.41324 117.34267,119.41324 118.13011,119.78518 118.15333,120.25121"
         sodipodi:ry="0.8586762"
         sodipodi:rx="1.7745975"
         sodipodi:cy="120.27191"
         sodipodi:cx="116.37925"
         id="path3824"
         style="fill:#0000ff;fill-opacity:1;fill-rule:nonzero;stroke:none"
         sodipodi:type="arc"
         transform="matrix(1.7245662,0,0,1.7245662,-91.763996,-96.064691)" />
      <path
         sodipodi:open="true"
         sodipodi:end="6.259079"
         sodipodi:start="0"
         d="M 126.28265,124.67979 C 126.28265,125.50179 125.92383,126.16816 125.48122,126.16816 125.0386,126.16816 124.67979,125.50179 124.67979,124.67979 124.67979,123.85778 125.0386,123.19141 125.48122,123.19141 125.91631,123.19141 126.27193,123.83612 126.28241,124.64391"
         sodipodi:ry="1.4883721"
         sodipodi:rx="0.80143112"
         sodipodi:cy="124.67979"
         sodipodi:cx="125.48122"
         id="path3826"
         style="fill:#0000ff;fill-opacity:1;fill-rule:nonzero;stroke:none"
         sodipodi:type="arc"
         transform="matrix(1.7245662,0,0,1.7245662,-91.763996,-96.064691)" />
      <path
         sodipodi:open="true"
         sodipodi:end="6.259079"
         sodipodi:start="0"
         d="M 136.93023,127.48479 C 136.93023,128.21195 136.18698,128.80142 135.27013,128.80142 134.35327,128.80142 133.61002,128.21195 133.61002,127.48479 133.61002,126.75763 134.35327,126.16815 135.27013,126.16815 136.17139,126.16815 136.90803,126.73846 136.92975,127.45305"
         sodipodi:ry="1.3166368"
         sodipodi:rx="1.6601074"
         sodipodi:cy="127.48479"
         sodipodi:cx="135.27013"
         id="path3828"
         style="fill:#0000ff;fill-opacity:1;fill-rule:nonzero;stroke:none"
         sodipodi:type="arc"
         transform="matrix(1.7245662,0,0,1.7245662,-91.763996,-96.064691)" />
      <path
         sodipodi:open="true"
         sodipodi:end="6.259079"
         sodipodi:start="0"
         d="M 140.13596,121.24508 C 140.13596,121.87739 139.54648,122.38998 138.81932,122.38998 138.09216,122.38998 137.50268,121.87739 137.50268,121.24508 137.50268,120.61277 138.09216,120.10018 138.81932,120.10018 139.53411,120.10018 140.11835,120.5961 140.13557,121.21748"
         sodipodi:ry="1.1449016"
         sodipodi:rx="1.3166368"
         sodipodi:cy="121.24508"
         sodipodi:cx="138.81932"
         id="path3830"
         style="fill:#0000ff;fill-opacity:1;fill-rule:nonzero;stroke:none"
         sodipodi:type="arc"
         transform="matrix(1.7245662,0,0,1.7245662,-91.763996,-96.064691)" />
      <path
         sodipodi:open="true"
         sodipodi:end="6.259079"
         sodipodi:start="0"
         d="M 141.62433,111.39893 C 141.62433,112.47386 141.03485,113.34527 140.30769,113.34527 139.58054,113.34527 138.99106,112.47386 138.99106,111.39893 138.99106,110.324 139.58054,109.4526 140.30769,109.4526 141.02249,109.4526 141.60672,110.29567 141.62395,111.35202"
         sodipodi:ry="1.9463327"
         sodipodi:rx="1.3166368"
         sodipodi:cy="111.39893"
         sodipodi:cx="140.30769"
         id="path3832"
         style="fill:#0000ff;fill-opacity:1;fill-rule:nonzero;stroke:none"
         sodipodi:type="arc"
         transform="matrix(1.7245662,0,0,1.7245662,-91.763996,-96.064691)" />
      <path
         sodipodi:open="true"
         sodipodi:end="6.259079"
         sodipodi:start="0"
         d="M 130.51879,127.48479 C 130.51879,127.83256 129.87805,128.11448 129.08766,128.11448 128.29727,128.11448 127.65653,127.83256 127.65653,127.48479 127.65653,127.13702 128.29727,126.85509 129.08766,126.85509 129.86461,126.85509 130.49965,127.12785 130.51837,127.46961"
         sodipodi:ry="0.62969589"
         sodipodi:rx="1.4311271"
         sodipodi:cy="127.48479"
         sodipodi:cx="129.08766"
         id="path3834"
         style="fill:#0000ff;fill-opacity:1;fill-rule:nonzero;stroke:none"
         sodipodi:type="arc"
         transform="matrix(1.7245662,0,0,1.7245662,-91.763996,-96.064691)" />
      <path
         sodipodi:open="true"
         sodipodi:end="6.259079"
         sodipodi:start="0"
         d="M 126.05366,133.26654 C 126.05366,134.02531 125.51544,134.64042 124.85152,134.64042 124.18759,134.64042 123.64937,134.02531 123.64937,133.26654 123.64937,132.50777 124.18759,131.89266 124.85152,131.89266 125.50415,131.89266 126.03758,132.48777 126.05331,133.23342"
         sodipodi:ry="1.3738819"
         sodipodi:rx="1.2021466"
         sodipodi:cy="133.26654"
         sodipodi:cx="124.85152"
         id="path3836"
         style="fill:#0000ff;fill-opacity:1;fill-rule:nonzero;stroke:none"
         sodipodi:type="arc"
         transform="matrix(1.7245662,0,0,1.7245662,-91.763996,-96.064691)" />
      <path
         sodipodi:open="true"
         sodipodi:end="6.259079"
         sodipodi:start="0"
         d="M 110.36851,130.74776 C 110.36851,131.82269 109.59963,132.69409 108.65116,132.69409 107.70269,132.69409 106.93381,131.82269 106.93381,130.74776 106.93381,129.67283 107.70269,128.80142 108.65116,128.80142 109.5835,128.80142 110.34554,129.6445 110.36801,130.70084"
         sodipodi:ry="1.9463327"
         sodipodi:rx="1.7173524"
         sodipodi:cy="130.74776"
         sodipodi:cx="108.65116"
         id="path3838"
         style="fill:#0000ff;fill-opacity:1;fill-rule:nonzero;stroke:none"
         sodipodi:type="arc"
         transform="matrix(1.7245662,0,0,1.7245662,-91.763996,-96.064691)" />
      <path
         sodipodi:open="true"
         sodipodi:end="6.259079"
         sodipodi:start="0"
         d="M 112.54383,125.30948 C 112.54383,125.91017 112.00561,126.39714 111.34168,126.39714 110.67776,126.39714 110.13954,125.91017 110.13954,125.30948 110.13954,124.70878 110.67776,124.22182 111.34168,124.22182 111.99432,124.22182 112.52775,124.69295 112.54348,125.28326"
         sodipodi:ry="1.0876565"
         sodipodi:rx="1.2021466"
         sodipodi:cy="125.30948"
         sodipodi:cx="111.34168"
         id="path3840"
         style="fill:#0000ff;fill-opacity:1;fill-rule:nonzero;stroke:none"
         sodipodi:type="arc"
         transform="matrix(1.7245662,0,0,1.7245662,-91.763996,-96.064691)" />
      <path
         sodipodi:open="true"
         sodipodi:end="6.259079"
         sodipodi:start="0"
         d="M 119.8712,137.73166 C 119.8712,138.86982 119.10231,139.79248 118.15385,139.79248 117.20538,139.79248 116.43649,138.86982 116.43649,137.73166 116.43649,136.5935 117.20538,135.67084 118.15385,135.67084 119.08619,135.67084 119.84823,136.5635 119.8707,137.68198"
         sodipodi:ry="2.060823"
         sodipodi:rx="1.7173524"
         sodipodi:cy="137.73166"
         sodipodi:cx="118.15385"
         id="path3842"
         style="fill:#0000ff;fill-opacity:1;fill-rule:nonzero;stroke:none"
         sodipodi:type="arc"
         transform="matrix(1.7245662,0,0,1.7245662,-91.763996,-96.064691)" />
      <path
         sodipodi:open="true"
         sodipodi:end="6.259079"
         sodipodi:start="0"
         d="M 117.35242,131.54919 C 117.35242,132.18151 116.86546,132.6941 116.26476,132.6941 115.66407,132.6941 115.17711,132.18151 115.17711,131.54919 115.17711,130.91688 115.66407,130.40429 116.26476,130.40429 116.85525,130.40429 117.33787,130.90022 117.3521,131.5216"
         sodipodi:ry="1.1449016"
         sodipodi:rx="1.0876565"
         sodipodi:cy="131.54919"
         sodipodi:cx="116.26476"
         id="path3844"
         style="fill:#0000ff;fill-opacity:1;fill-rule:nonzero;stroke:none"
         sodipodi:type="arc"
         transform="matrix(1.7245662,0,0,1.7245662,-91.763996,-96.064691)" />
      <path
         sodipodi:open="true"
         sodipodi:end="6.259079"
         sodipodi:start="0"
         d="M 133.95349,140.53667 C 133.95349,141.32706 133.13334,141.96779 132.12164,141.96779 131.10994,141.96779 130.2898,141.32706 130.2898,140.53667 130.2898,139.74628 131.10994,139.10554 132.12164,139.10554 133.11614,139.10554 133.92898,139.72545 133.95295,140.50217"
         sodipodi:ry="1.4311271"
         sodipodi:rx="1.8318425"
         sodipodi:cy="140.53667"
         sodipodi:cx="132.12164"
         id="path3846"
         style="fill:#0000ff;fill-opacity:1;fill-rule:nonzero;stroke:none"
         sodipodi:type="arc"
         transform="matrix(1.7245662,0,0,1.7245662,-91.763996,-96.064691)" />
      <path
         sodipodi:open="true"
         sodipodi:end="6.259079"
         sodipodi:start="0"
         d="M 134.41145,135.32738 C 134.41145,136.14938 133.92449,136.81575 133.32379,136.81575 132.7231,136.81575 132.23614,136.14938 132.23614,135.32738 132.23614,134.50537 132.7231,133.83901 133.32379,133.83901 133.91427,133.83901 134.3969,134.48371 134.41113,135.2915"
         sodipodi:ry="1.4883721"
         sodipodi:rx="1.0876565"
         sodipodi:cy="135.32738"
         sodipodi:cx="133.32379"
         id="path3848"
         style="fill:#0000ff;fill-opacity:1;fill-rule:nonzero;stroke:none"
         sodipodi:type="arc"
         transform="matrix(1.7245662,0,0,1.7245662,-91.763996,-96.064691)" />
      <path
         sodipodi:open="true"
         sodipodi:end="6.259079"
         sodipodi:start="0"
         d="M 141.05188,132.00716 C 141.05188,132.7027 140.59055,133.26655 140.02147,133.26655 139.45239,133.26655 138.99106,132.7027 138.99106,132.00716 138.99106,131.31161 139.45239,130.74776 140.02147,130.74776 140.58087,130.74776 141.0381,131.29328 141.05158,131.9768"
         sodipodi:ry="1.2593918"
         sodipodi:rx="1.0304115"
         sodipodi:cy="132.00716"
         sodipodi:cx="140.02147"
         id="path3850"
         style="fill:#0000ff;fill-opacity:1;fill-rule:nonzero;stroke:none"
         sodipodi:type="arc"
         transform="matrix(1.7245662,0,0,1.7245662,-91.763996,-96.064691)" />
      <path
         sodipodi:open="true"
         sodipodi:end="6.259079"
         sodipodi:start="0"
         d="M 143.1127,125.76744 C 143.1127,126.17844 142.77952,126.51163 142.36852,126.51163 141.95751,126.51163 141.62433,126.17844 141.62433,125.76744 141.62433,125.35644 141.95751,125.02325 142.36852,125.02325 142.77253,125.02325 143.10275,125.34561 143.11248,125.7495"
         sodipodi:ry="0.74418604"
         sodipodi:rx="0.74418604"
         sodipodi:cy="125.76744"
         sodipodi:cx="142.36852"
         id="path3852"
         style="fill:#0000ff;fill-opacity:1;fill-rule:nonzero;stroke:none"
         sodipodi:type="arc"
         transform="matrix(1.7245662,0,0,1.7245662,-91.763996,-96.064691)" />
      <path
         sodipodi:open="true"
         sodipodi:end="6.259079"
         sodipodi:start="0"
         d="M 145.86046,119.69946 C 145.86046,120.55308 145.14284,121.24508 144.2576,121.24508 143.37236,121.24508 142.65474,120.55308 142.65474,119.69946 142.65474,118.84584 143.37236,118.15385 144.2576,118.15385 145.12778,118.15385 145.83902,118.82334 145.86,119.66221"
         sodipodi:ry="1.5456172"
         sodipodi:rx="1.6028622"
         sodipodi:cy="119.69946"
         sodipodi:cx="144.2576"
         id="path3854"
         style="fill:#0000ff;fill-opacity:1;fill-rule:nonzero;stroke:none"
         sodipodi:type="arc"
         transform="matrix(1.7245662,0,0,1.7245662,-91.763996,-96.064691)" />
      <path
         sodipodi:open="true"
         sodipodi:end="6.259079"
         sodipodi:start="0"
         d="M 141.05188,138.18962 C 141.05188,138.63224 140.53929,138.99105 139.90698,138.99105 139.27467,138.99105 138.76208,138.63224 138.76208,138.18962 138.76208,137.747 139.27467,137.38819 139.90698,137.38819 140.52854,137.38819 141.03657,137.73534 141.05155,138.1703"
         sodipodi:ry="0.80143112"
         sodipodi:rx="1.1449016"
         sodipodi:cy="138.18962"
         sodipodi:cx="139.90698"
         id="path3856"
         style="fill:#0000ff;fill-opacity:1;fill-rule:nonzero;stroke:none"
         sodipodi:type="arc"
         transform="matrix(1.7245662,0,0,1.7245662,-91.763996,-96.064691)" />
      <path
         sodipodi:open="true"
         sodipodi:end="6.259079"
         sodipodi:start="0"
         d="M 146.20394,132.29338 C 146.20394,132.83085 145.76824,133.26655 145.23077,133.26655 144.69331,133.26655 144.25761,132.83085 144.25761,132.29338 144.25761,131.75592 144.69331,131.32021 145.23077,131.32021 145.7591,131.32021 146.19092,131.74175 146.20366,132.26992"
         sodipodi:ry="0.97316635"
         sodipodi:rx="0.97316635"
         sodipodi:cy="132.29338"
         sodipodi:cx="145.23077"
         id="path3858"
         style="fill:#0000ff;fill-opacity:1;fill-rule:nonzero;stroke:none"
         sodipodi:type="arc"
         transform="matrix(1.7245662,0,0,1.7245662,-91.763996,-96.064691)" />
      <path
         sodipodi:open="true"
         sodipodi:end="6.259079"
         sodipodi:start="0"
         d="M 148.49374,124.56529 C 148.49374,125.51376 148.03241,126.28264 147.46333,126.28264 146.89425,126.28264 146.43292,125.51376 146.43292,124.56529 146.43292,123.61682 146.89425,122.84794 147.46333,122.84794 148.02274,122.84794 148.47996,123.59183 148.49345,124.5239"
         sodipodi:ry="1.7173524"
         sodipodi:rx="1.0304115"
         sodipodi:cy="124.56529"
         sodipodi:cx="147.46333"
         id="path3860"
         style="fill:#0000ff;fill-opacity:1;fill-rule:nonzero;stroke:none"
         sodipodi:type="arc"
         transform="matrix(1.7245662,0,0,1.7245662,-91.763996,-96.064691)" />
      <path
         sodipodi:open="true"
         sodipodi:end="6.259079"
         sodipodi:start="0"
         d="M 119.52772,106.07513 C 119.52772,106.73905 119.06639,107.27727 118.49731,107.27727 117.92823,107.27727 117.4669,106.73905 117.4669,106.07513 117.4669,105.4112 117.92823,104.87298 118.49731,104.87298 119.05671,104.87298 119.51394,105.3937 119.52742,106.04615"
         sodipodi:ry="1.2021466"
         sodipodi:rx="1.0304115"
         sodipodi:cy="106.07513"
         sodipodi:cx="118.49731"
         id="path3862"
         style="fill:#0000ff;fill-opacity:1;fill-rule:nonzero;stroke:none"
         sodipodi:type="arc"
         transform="matrix(1.7245662,0,0,1.7245662,-91.763996,-96.064691)" />
      <path
         sodipodi:open="true"
         sodipodi:end="6.259079"
         sodipodi:start="0"
         d="M 133.03757,106.18962 C 133.03757,106.91678 132.57624,107.50626 132.00716,107.50626 131.43808,107.50626 130.97674,106.91678 130.97674,106.18962 130.97674,105.46246 131.43808,104.87298 132.00716,104.87298 132.56656,104.87298 133.02378,105.4433 133.03727,106.15788"
         sodipodi:ry="1.3166368"
         sodipodi:rx="1.0304115"
         sodipodi:cy="106.18962"
         sodipodi:cx="132.00716"
         id="path3864"
         style="fill:#0000ff;fill-opacity:1;fill-rule:nonzero;stroke:none"
         sodipodi:type="arc"
         transform="matrix(1.7245662,0,0,1.7245662,-91.763996,-96.064691)" />
      <path
         sodipodi:open="true"
         sodipodi:end="6.259079"
         sodipodi:start="0"
         d="M 111.62791,137.73166 C 111.62791,138.30074 111.14095,138.76207 110.54025,138.76207 109.93956,138.76207 109.4526,138.30074 109.4526,137.73166 109.4526,137.16258 109.93956,136.70125 110.54025,136.70125 111.13073,136.70125 111.61336,137.14758 111.62759,137.70682"
         sodipodi:ry="1.0304115"
         sodipodi:rx="1.0876565"
         sodipodi:cy="137.73166"
         sodipodi:cx="110.54025"
         id="path3866"
         style="fill:#0000ff;fill-opacity:1;fill-rule:nonzero;stroke:none"
         sodipodi:type="arc"
         transform="matrix(1.7245662,0,0,1.7245662,-91.763996,-96.064691)" />
      <path
         sodipodi:open="true"
         sodipodi:end="6.259079"
         sodipodi:start="0"
         d="M 125.93918,140.02147 C 125.93918,140.84347 125.3497,141.50984 124.62254,141.50984 123.89538,141.50984 123.30591,140.84347 123.30591,140.02147 123.30591,139.19946 123.89538,138.5331 124.62254,138.5331 125.33734,138.5331 125.92157,139.1778 125.9388,139.98559"
         sodipodi:ry="1.4883721"
         sodipodi:rx="1.3166368"
         sodipodi:cy="140.02147"
         sodipodi:cx="124.62254"
         id="path3868"
         style="fill:#0000ff;fill-opacity:1;fill-rule:nonzero;stroke:none"
         sodipodi:type="arc"
         transform="matrix(1.7245662,0,0,1.7245662,-91.763996,-96.064691)" />
      <path
         sodipodi:open="true"
         sodipodi:end="6.259079"
         sodipodi:start="0"
         d="M 145.86046,137.44543 C 145.86046,138.04613 145.21973,138.53309 144.42934,138.53309 143.63895,138.53309 142.99821,138.04613 142.99821,137.44543 142.99821,136.84474 143.63895,136.35778 144.42934,136.35778 145.20629,136.35778 145.84132,136.82891 145.86005,137.41922"
         sodipodi:ry="1.0876565"
         sodipodi:rx="1.4311271"
         sodipodi:cy="137.44543"
         sodipodi:cx="144.42934"
         id="path3870"
         style="fill:#0000ff;fill-opacity:1;fill-rule:nonzero;stroke:none"
         sodipodi:type="arc"
         transform="matrix(1.7245662,0,0,1.7245662,-91.763996,-96.064691)" />
      <path
         sodipodi:open="true"
         sodipodi:end="6.259079"
         sodipodi:start="0"
         d="M 112.65832,116.20751 C 112.65832,116.77659 111.94069,117.23792 111.05546,117.23792 110.17022,117.23792 109.4526,116.77659 109.4526,116.20751 109.4526,115.63843 110.17022,115.1771 111.05546,115.1771 111.92564,115.1771 112.63688,115.62343 112.65785,116.18267"
         sodipodi:ry="1.0304115"
         sodipodi:rx="1.6028622"
         sodipodi:cy="116.20751"
         sodipodi:cx="111.05546"
         id="path3872"
         style="fill:#0000ff;fill-opacity:1;fill-rule:nonzero;stroke:none"
         sodipodi:type="arc"
         transform="matrix(1.7245662,0,0,1.7245662,-91.763996,-96.064691)" />
      <path
         sodipodi:open="true"
         sodipodi:end="6.259079"
         sodipodi:start="0"
         d="M 121.70304,111.34168 C 121.70304,112.13207 121.26734,112.77281 120.72987,112.77281 120.19241,112.77281 119.75671,112.13207 119.75671,111.34168 119.75671,110.55129 120.19241,109.91056 120.72987,109.91056 121.2582,109.91056 121.69002,110.53046 121.70276,111.30719"
         sodipodi:ry="1.4311271"
         sodipodi:rx="0.97316635"
         sodipodi:cy="111.34168"
         sodipodi:cx="120.72987"
         id="path3874"
         style="fill:#0000ff;fill-opacity:1;fill-rule:nonzero;stroke:none"
         sodipodi:type="arc"
         transform="matrix(1.7245662,0,0,1.7245662,-91.763996,-96.064691)" />
      <path
         sodipodi:open="true"
         sodipodi:end="6.259079"
         sodipodi:start="0"
         d="M 136.1288,111.22719 C 136.1288,111.89112 135.46243,112.42933 134.64043,112.42933 133.81842,112.42933 133.15205,111.89112 133.15205,111.22719 133.15205,110.56326 133.81842,110.02504 134.64043,110.02504 135.44845,110.02504 136.10889,110.54576 136.12837,111.19821"
         sodipodi:ry="1.2021466"
         sodipodi:rx="1.4883721"
         sodipodi:cy="111.22719"
         sodipodi:cx="134.64043"
         id="path3876"
         style="fill:#0000ff;fill-opacity:1;fill-rule:nonzero;stroke:none"
         sodipodi:type="arc"
         transform="matrix(1.7245662,0,0,1.7245662,-91.763996,-96.064691)" />
      <path
         sodipodi:open="true"
         sodipodi:end="6.259079"
         sodipodi:start="0"
         d="M 148.37925,116.15027 C 148.37925,116.87743 147.76415,117.46691 147.00537,117.46691 146.2466,117.46691 145.63149,116.87743 145.63149,116.15027 145.63149,115.42311 146.2466,114.83363 147.00537,114.83363 147.75124,114.83363 148.36088,115.40395 148.37885,116.11853"
         sodipodi:ry="1.3166368"
         sodipodi:rx="1.3738819"
         sodipodi:cy="116.15027"
         sodipodi:cx="147.00537"
         id="path3878"
         style="fill:#0000ff;fill-opacity:1;fill-rule:nonzero;stroke:none"
         sodipodi:type="arc"
         transform="matrix(1.7245662,0,0,1.7245662,-91.763996,-96.064691)" />
      <path
         sodipodi:open="true"
         sodipodi:end="6.259079"
         sodipodi:start="0"
         d="M 127.19857,120.84437 C 127.19857,121.44506 126.40406,121.93202 125.42397,121.93202 124.44389,121.93202 123.64938,121.44506 123.64938,120.84437 123.64938,120.24367 124.44389,119.75671 125.42397,119.75671 126.38739,119.75671 127.17483,120.22784 127.19806,120.81815"
         sodipodi:ry="1.0876565"
         sodipodi:rx="1.7745975"
         sodipodi:cy="120.84437"
         sodipodi:cx="125.42397"
         id="path3880"
         style="fill:#0000ff;fill-opacity:1;fill-rule:nonzero;stroke:none"
         sodipodi:type="arc"
         transform="matrix(1.7245662,0,0,1.7245662,-91.763996,-96.064691)" />
    </g>
    <g
       id="lightning"
       inkscape:label="#g4008">
      <path
         inkscape:connector-curvature="0"
         id="path3921"
         d="M 128.01411,96 192.02822,64 256.04232,96 192.02822,128 z"
         style="fill:none;stroke:none;stroke-width:1px;stroke-linecap:butt;stroke-linejoin:miter;stroke-opacity:1" />
      <path
         inkscape:connector-curvature="0"
         id="path3925"
         d="M 153.82609,57.658574 169.82961,81.658574 169.82961,65.658574 185.83314,89.658579 167.30488,56.666555 167.81651,73.891623 z"
         style="fill:#ffff00;stroke:none" />
      <path
         inkscape:connector-curvature="0"
         id="path3925-5"
         d="M 159.65807,78.511968 175.66159,102.51197 175.66159,86.511968 191.66512,110.51197 173.13686,77.519949 173.64849,94.745017 z"
         style="fill:#ffff00;stroke:none" />
      <path
         inkscape:connector-curvature="0"
         id="path3925-3"
         d="M 186.60421,94.713765 202.60773,118.71377 202.60773,102.71377 218.61126,126.71377 200.083,93.721746 200.59463,110.94682 z"
         style="fill:#ffff00;stroke:none" />
      <path
         inkscape:connector-curvature="0"
         id="path3925-9"
         d="M 172.96059,55.488362 188.96411,79.488362 188.96411,63.488362 204.96764,87.488367 186.43938,54.496343 186.95101,71.721411 z"
         style="fill:#ffff00;stroke:none" />
      <path
         inkscape:connector-curvature="0"
         id="path3925-58"
         d="M 181.14677,76.124335 197.15029,100.12434 197.15029,84.124335 213.15382,108.12434 194.62556,75.132316 195.13719,92.357384 z"
         style="fill:#ffff00;stroke:none" />
      <path
         inkscape:connector-curvature="0"
         id="path3925-4"
         d="M 201.95329,79.705785 217.95681,103.70578 217.95681,87.705785 233.96034,111.70579 215.43208,78.713766 215.94371,95.938834 z"
         style="fill:#ffff00;stroke:none" />
      <path
         inkscape:connector-curvature="0"
         id="path3925-99"
         d="M 196.49583,61.286899 212.49935,85.286899 212.49935,69.286899 228.50288,93.286904 209.97462,60.29488 210.48625,77.519948 z"
         style="fill:#ffff00;stroke:none" />
      <path
         inkscape:connector-curvature="0"
         id="path3925-55"
         d="M 164.77443,96.930854 180.77795,120.93086 180.77795,104.93085 196.78148,128.93086 178.25322,95.938835 178.76485,113.16391 z"
         style="fill:#ffff00;stroke:none" />
      <path
         inkscape:connector-curvature="0"
         id="path3925-47"
         d="M 140.38645,71.860704 156.38997,95.860704 156.38997,79.860704 172.3935,103.86071 153.86524,70.868685 154.37687,88.093753 z"
         style="fill:#ffff00;stroke:none" />
      <path
         inkscape:connector-curvature="0"
         id="path3925-95"
         d="M 144.82063,88.915228 160.82415,112.91523 160.82415,96.915226 176.82768,120.91524 158.29942,87.923209 158.81105,105.14828 z"
         style="fill:#ffff00;stroke:none" />
      <path
         inkscape:connector-curvature="0"
         id="path3925-8"
         d="M 218.66672,71.860704 234.67024,95.860704 234.67024,79.860704 250.67377,103.86071 232.14551,70.868685 232.65714,88.093753 z"
         style="fill:#ffff00;stroke:none" />
    </g>
    <g
       id="magic_missile"
       inkscape:label="#g4040">
      <path
         inkscape:connector-curvature="0"
         id="path4022"
         d="M -0.01410803,96 64,64 128.01411,96 64,128 z"
         style="fill:none;stroke:none;stroke-width:1px;stroke-linecap:butt;stroke-linejoin:miter;stroke-opacity:1" />
      <path
         inkscape:transform-center-y="0.022132445"
         inkscape:transform-center-x="-0.016666107"
         d="M 69.125378,81.08828 C 69.069739,81.08097 69.105844,80.533132 69.049969,80.52504 68.994095,80.516949 68.862177,81.057196 68.81466,81.031685 68.767143,81.006174 69.074025,80.559042 69.032116,80.523688 68.990206,80.488334 68.603219,80.817457 68.562556,80.777823 68.521893,80.738188 68.97624,80.522888 68.958238,80.468445 68.940237,80.414002 68.461885,80.551083 68.44949,80.499452 68.437096,80.447821 68.898627,80.410375 68.895822,80.356937 68.893017,80.303498 68.428995,80.235133 68.449468,80.181221 68.469942,80.127309 68.940087,80.38874 68.958098,80.338264 68.976109,80.287787 68.526541,79.963628 68.564596,79.92362 68.602652,79.883613 68.994224,80.304645 69.03203,80.266925 69.069836,80.229205 68.771641,79.815362 68.816639,79.785217 68.861638,79.755072 68.99554,80.19463 69.050038,80.181578 69.104535,80.168525 69.073761,79.706238 69.127317,79.707646 69.180873,79.709054 69.074495,80.289441 69.125468,80.307526 69.176441,80.32561 69.317127,79.673436 69.363021,79.701485 69.408916,79.729535 69.100056,80.273776 69.143322,80.308878 69.186587,80.34398 69.57797,79.912868 69.615126,79.955348 69.652281,79.997827 69.134216,80.227047 69.155774,80.275333 69.177331,80.32362 69.722195,80.126545 69.725945,80.181571 69.729694,80.236596 69.149607,80.283261 69.143317,80.335873 69.137027,80.388485 69.738809,80.44521 69.725966,80.499802 69.713124,80.554394 69.177918,80.353336 69.155914,80.405515 69.13391,80.457693 69.648087,80.770416 69.613085,80.80955 69.578084,80.848684 69.192817,80.400508 69.143407,80.429205 69.093998,80.457902 69.408601,80.923326 69.361042,80.947953 69.313484,80.97258 69.179046,80.504914 69.1254,80.514552 69.071754,80.52419 69.181016,81.095589 69.125378,81.08828 z"
         inkscape:randomized="0.1"
         inkscape:rounded="0.1"
         inkscape:flatsided="false"
         sodipodi:arg2="1.7951958"
         sodipodi:arg1="1.5707963"
         sodipodi:r2="0.13643618"
         sodipodi:r1="0.68218094"
         sodipodi:cy="80.372343"
         sodipodi:cx="69.07082"
         sodipodi:sides="14"
         id="path4034"
         style="fill:#ff00ff;fill-opacity:1;fill-rule:nonzero;stroke:none"
         sodipodi:type="star" />
      <path
         transform="matrix(-2.9088875,0,0,-2.9088875,55.297854,346.64485)"
         d="M -2.7287238,89.41124 C -2.6979406,89.462545 -2.7826948,89.478047 -2.8139964,89.462403 -2.8988216,89.42001 -2.8845003,89.301365 -2.831051,89.240694 -2.7354427,89.13217 -2.5644322,89.159408 -2.472906,89.257749 -2.3385875,89.402067 -2.3801292,89.631521 -2.5240693,89.75233 -2.7159188,89.91335 -3.005571,89.856923 -3.1550867,89.667058 -3.343237,89.428132 -3.2716686,89.077547 -3.0357054,88.899604 -2.7499224,88.684092 -2.338027,88.770932 -2.1318156,89.053094 -1.8888026,89.385613 -1.9909899,89.859039 -2.3194149,90.09342 -2.6985946,90.364023 -3.2336918,90.246442 -3.4961771,89.871712 -3.7944295,89.44592 -3.6614247,88.849057 -3.2403598,88.558514 -2.7679887,88.232568 -2.1092921,88.381019 -1.7907252,88.84844 -1.4370557,89.367366 -1.6009672,90.087945 -2.1147605,90.434511 -2.6802234,90.815928 -3.462723,90.636544 -3.8372675,90.076367 -4.2464518,89.46438 -4.0515863,88.619931 -3.4450143,88.217423 -2.7865154,87.780458 -1.8800943,87.990812 -1.4496349,88.643786 -0.98487637,89.348789 -1.210724,90.3172 -1.9101061,90.775601 -2.6616065,91.268162 -3.6920241,91.026816 -4.1783578,90.281021 -4.6987292,89.483029 -4.4418814,88.390593 -3.6496687,87.876333 -2.8051895,87.328145 -1.6507246,87.600497 -1.1085445,88.439131 -0.53253366,89.330094 -0.82039393,90.546596 -1.7054516,91.116691 -2.6428939,91.72053 -3.9214417,91.41716 -4.5194482,90.485675 -5.1511177,89.501756 -4.8322363,88.161157 -3.8543231,87.535243 -2.8239291,86.875738 -1.4212723,87.210133 -0.76745414,88.234477 -0.08011186,89.311343 -0.43002083,90.776062 -1.5007972,91.457782 -2.6241344,92.172965 -4.15092,91.80754 -4.8605386,90.69033 -5.6035645,89.520524 -5.2226231,87.931668 -4.0589775,87.194152 -2.8427037,86.423281 -1.191774,86.81974 -0.42636377,88.029822 0.37235418,89.292562 -0.03962334,91.005569 -1.2961428,91.798872 -2.6053482,92.625439 -4.3804341,92.197942 -5.2016289,90.894984 -6.0560456,89.539315 -5.613029,87.702147 -4.263632,86.853062 -2.8614991,85.970794 -0.96224731,86.429331 -0.0852734,87.825168 0.82484745,89.273763 0.35078929,91.235101 -1.0914884,92.139963 -2.5865455,93.077937 -4.609971,92.588358 -5.5427193,91.099639 -6.5085488,89.55812 -6.0034471,87.472606 -4.4682864,86.511971 -2.8803077,85.518286 -0.73270202,86.03891 0.25581697,87.620513 1.2773587,89.254952 0.74121199,91.46465 -0.88683393,92.481053 -2.5677318,93.530452 -4.8395233,92.978782 -5.8838097,91.304293 -6.9610668,89.576936 -6.3938736,87.24305 -4.6729408,86.170881 -2.8991255,85.065765 -0.50314382,85.648482 0.59690734,87.415859 1.7298824,89.236132 1.1316417,91.694211 -0.6821795,92.822143 -2.5489106,93.982978 -5.0690865,93.369213 -6.2249001,91.508947 -7.4135953,89.595759 -6.7843061,87.013485 -4.8775952,85.829791 -2.9179498,84.613235 -0.27357629,85.258048 0.93799771,87.211205 2.1824151,89.217307 1.5220765,91.92378 -0.47752508,93.163234 -2.5300838,94.435513 -5.2986577,93.759649 -6.5659904,91.713602 -7.8661316,89.614587 -7.1747429,86.783912 -5.0822497,85.4887 -2.9367788,84.160697 -0.04400182,84.867611 1.2790881,87.00655 2.6349545,89.198477 1.9125151,92.153356 -0.27287065,93.504324 -2.5112528,94.888054 -5.528235,94.150089 -6.9070808,91.918256 -8.3186737,89.633419 -7.565183,86.554333 -5.2869041,85.14761 -2.9556114,83.708153 0.18557798,84.47717 1.6201785,86.801896 3.087499,89.179643 2.3029566,92.382937 -0.06821622,93.845414 -2.4924187,95.340599 -5.757817,94.540531 -7.2481712,92.122911 -8.7712204,89.652254 -7.9556258,86.32475 -5.4915585,84.80652 -2.9744468,83.255606 0.41516193,84.086727 1.9612688,86.597241 3.5400476,89.160807 2.6934004,92.612522 0.1364382,94.186505 -2.4735821,95.793149 -5.9874027,94.930975 -7.5892615,92.327565 -9.2237706,89.671091 -8.3460705,86.095164 -5.6962129,84.465429 -2.9932845,82.803055 0.6447492,83.696281 2.3023592,86.392587 3.9925993,89.141969 3.083846,92.84211 0.34109263,94.527595 -2.4547435,96.245701 -6.2169914,95.321421 -7.9303519,92.53222 -9.6763238,89.68993 -8.7365169,85.865574 -5.9008674,84.124339 -3.0121239,82.350501 0.87433915,83.305835 2.6434496,86.187932 4.4451537,89.123129 3.4742931,93.0717 0.54574705,94.868686 -2.4359033,96.698256 -6.4465825,95.711868 -8.2714423,92.736874 -10.128879,89.70877 -9.1269647,85.635983 -6.1055218,83.783249 -3.0309648,81.897945 1.1039313,82.915387 2.9845399,85.983278 4.8977102,89.104288 3.8647415,93.301293 0.75040148,95.209776 -2.4170618,97.150813 -6.6761756,96.102317 -8.6125326,92.941528 -10.581437,89.727612 -9.5174135,85.406389 -6.3101762,83.442158 -3.0498069,81.445387 1.3335253,82.524937 3.3256303,85.778624 5.3502685,89.085446 4.2551908,93.530887 0.95505591,95.550866 -2.3982191,97.603372 -6.9057704,96.492767 -8.953623,93.146183 -11.033996,89.746455 -9.9078633,85.176794 -6.5148306,83.101068 -3.0686501,80.992828 1.5631208,82.134487 3.6667207,85.573969 5.8028282,89.066602 4.645641,93.760483 1.1597103,95.891957 -2.3793756,98.055932 -7.1353666,96.883217 -9.2947134,93.350837 -11.486556,89.765299 -10.298314,84.947198 -6.7194851,82.759977 -3.087494,80.540267 1.7927177,81.744037 4.007811,85.369315 6.2553893,89.047758 5.0360919,93.99008 1.3643648,96.233047 -2.3605312,98.508493 -7.3649641,97.273668 -9.6358038,93.555492 -11.939118,89.784143 -10.688765,84.7176 -6.9241395,82.418887 -3.1063387,80.087705 2.0223156,81.353585 4.3489014,85.16466 6.7079514,89.028913 5.4265435,94.219679 1.5690192,96.574137 -2.3416862,98.961055 -7.5945625,97.66412 -9.9768941,93.760146 -12.39168,89.802989 -11.079217,84.488001 -7.1287939,82.077797 -3.1251841,79.635142 2.2519146,80.963133 4.6899918,84.960006 7.1605144,89.010068 5.8169956,94.449278 1.7736736,96.915228 -2.3228406,99.413619 -7.8241619,98.054572 -10.317984,93.964801 -12.844244,89.821834 -11.469669,84.258402 -7.3334484,81.736706 -3.14403,79.182579 2.4815143,80.572681 5.0310822,84.755351 7.6130783,88.991222 6.2074481,94.678878 1.978328,97.256318 -2.3039944,99.866183 -8.053762,98.445025 -10.659075,94.169455 -13.296808,89.840681 -11.860122,84.028801 -7.5381028,81.395616 -3.1628763,78.730014 2.7111148,80.182228 5.3721725,84.550697 8.0656428,88.972375 6.5979011,94.908478 2.1829825,97.597409 -2.2851479,100.31875 -8.2833628,98.835478 -11.000165,94.374109 -13.749373,89.859527 -12.250575,83.7992 -7.7427572,81.054526 -3.1817231,78.277449 2.940716,79.791775 5.7132629,84.346043 8.518208,88.953529 6.9883544,95.13808 2.3876369,97.938499 -2.2663009,100.77131 -8.5129643,99.225931 -11.341256,94.578764 -14.201938,89.878374 -12.641029,83.569599 -7.9474116,80.713435 -3.2005702,77.824884 3.1703177,79.401321 6.0543533,84.141388 8.9707738,88.934681 7.378808,95.367682 2.5922913,98.279589 -2.2474536,101.22388 -8.7425662,99.616385 -11.682346,94.783418 -14.654504,89.897222 -13.031482,83.339997 -8.1520661,80.372345 -3.2194177,77.372317 3.3999199,79.010867 6.3954436,83.936734 9.42334,88.915834 7.769262,95.597284 2.7969457,98.62068 -2.228606,101.67644 -8.9721687,100.00684 -12.023436,94.988073 -15.107071,89.916069 -13.421937,83.110394 -8.3567205,80.031254 -3.2382654,76.919751 3.6295225,78.620413 6.736534,83.732079 9.8759066,88.896986 8.1597161,95.826887 3.0016002,98.96177 -2.2097581,102.12901 -9.2017715,100.39729 -12.364527,95.192727 -15.559638,89.934917 -13.812391,82.880791 -8.5613749,79.690164 -3.2571135,76.467184 3.8591256,78.229959 7.0776244,83.527425 10.328474,88.878138 8.5501705,96.05649 3.2062546,99.30286 -2.19091,102.58158 -9.4313748,100.78775 -12.705617,95.397382 -16.012205,89.953765 -14.202845,82.651188 -8.7660293,79.349074 -3.2759617,76.014617 4.088729,77.839504 7.4187147,83.32277 10.781041,88.85929 8.9406251,96.286093 3.410909,99.643951"
         sodipodi:t0="0"
         sodipodi:argument="-17.81918"
         sodipodi:radius="11.933292"
         sodipodi:revolution="30"
         sodipodi:expansion="1"
         sodipodi:cy="89.41124"
         sodipodi:cx="-2.7287238"
         id="path4036"
         style="fill:none;stroke:#ff00ff;stroke-width:0.14366171;stroke-linecap:butt;stroke-linejoin:miter;stroke-miterlimit:4;stroke-opacity:1;stroke-dasharray:none;stroke-dashoffset:0"
         sodipodi:type="spiral" />
    </g>
    <rect
       style="fill:none;stroke:none"
       id="rect4045"
       width="47.272728"
       height="33.283859"
       x="-83.450836"
       y="136.35622" />
  </g>
</svg>
